<svg width="85" height="84" viewBox="0 0 85 84" fill="none" xmlns="http://www.w3.org/2000/svg">
<g id="SVG" clip-path="url(#clip0_39_221)">
<path id="Vector" fill-rule="evenodd" clip-rule="evenodd" d="M43.1715 0.0505162C56.0006 -0.68731 66.0051 6.72108 73.1196 17.4551C79.7698 27.4888 86.8975 36.3914 84.2844 48.1517C81.6435 60.0364 74.4259 68.594 64.0867 74.9739C52.8508 81.9069 43.0599 86.3106 31.3406 80.2361C20.0023 74.3592 2.62285 64.5316 0.507125 51.9067C-1.46522 40.1375 2.48425 21.118 9.83649 11.7351C17.2704 2.24794 31.1615 0.741237 43.1715 0.0505162Z" fill="#F6BE00"/>
<path id="Vector_2" fill-rule="evenodd" clip-rule="evenodd" d="M29.0104 28.6865C29.0349 29.1299 29.0589 29.5649 29.0789 29.9883C28.7874 30.1573 28.5107 30.3197 28.2444 30.4759C27.3792 30.9834 26.6246 31.4259 25.8378 31.8206C25.3819 32.0947 24.8773 32.2801 24.3511 32.3667C23.6201 32.4514 23.3607 32.8036 23.1539 33.459C22.7015 34.9089 22.6326 36.378 22.6463 37.8716C22.6813 40.6896 22.6987 43.5112 22.6987 46.3366C22.7017 47.5399 22.6861 49.1388 22.6708 50.7158C22.6571 52.1267 22.6436 53.5199 22.6436 54.5966C22.6436 56.3115 23.427 57.0296 25.1647 56.9258C25.2533 56.9211 25.3414 56.9089 25.4291 56.8967C25.5408 56.8811 25.6521 56.8658 25.7633 56.8658C26.8009 56.8523 27.8396 56.8197 28.8782 56.7871C31.1969 56.7144 33.5153 56.6416 35.8204 56.7812C38.9525 56.9716 42.202 56.9025 45.4573 56.8334C49.1113 56.7557 52.7723 56.678 56.2822 56.9669C59.1205 57.2044 60.0335 56.5081 60.4031 53.7529C60.4093 53.7119 60.4164 53.6709 60.4236 53.6299C60.4424 53.5235 60.4611 53.4169 60.4611 53.3105C60.6671 50.8081 60.7399 48.3065 60.8128 45.8045C60.8795 43.5149 60.9461 41.225 61.1149 38.9339C61.1485 37.9447 61.0885 36.9546 60.9356 35.9766C60.912 35.6506 60.782 35.341 60.565 35.0947C60.348 34.8484 60.056 34.6787 59.7329 34.6113C59.3192 34.5266 59.0157 34.4338 58.8337 33.9805C58.6576 33.6892 58.3945 33.4593 58.0806 33.3225C57.1799 32.7864 56.2467 32.3058 55.2864 31.8834C54.4588 31.553 54.183 31.0943 54.183 30.215C54.2087 28.1306 54.1701 26.0481 54.0672 23.9674C53.9513 21.6381 53.1541 20.7862 50.8012 20.4913C49.5591 20.3484 48.3081 20.2927 47.058 20.3247C43.2074 20.3938 39.3511 20.4849 35.4894 20.5978C33.8868 20.6523 32.2842 20.7316 30.687 20.8708C29.5478 20.9719 29.1893 21.2914 29.032 22.419C28.9006 23.4504 28.849 24.4902 28.8775 25.5293C28.8948 26.5963 28.9538 27.6631 29.0104 28.6865ZM41.7757 54.1429C36.5573 54.2612 31.3492 54.3792 26.2791 54.1434C26.1689 51.0504 26.0781 47.6336 25.9886 44.273C25.9124 41.409 25.8373 38.5861 25.7523 36.0394C25.8606 36.1051 25.9675 36.1691 26.0731 36.2325C26.3011 36.3691 26.5231 36.5021 26.7398 36.6402C27.8547 37.3502 28.9684 38.0624 30.0822 38.7748L30.0832 38.7754C32.6698 40.4297 35.257 42.0844 37.8616 43.7124C38.6371 44.1965 39.4514 44.6204 40.2658 45.0445C40.7375 45.2901 41.2094 45.5358 41.6738 45.7931C42.0581 46.0334 42.5064 46.154 42.9608 46.1394C43.4152 46.1248 43.8546 45.9756 44.2225 45.7112C45.1383 45.1078 46.043 44.4824 46.9256 43.8326C50.1751 41.4297 53.4253 39.0276 56.6766 36.6264C56.9558 36.421 57.2505 36.233 57.6162 35.9999L57.7468 35.9165C57.6375 38.2459 57.7212 40.5574 57.8048 42.8651C57.9405 46.6145 58.0759 50.3539 57.3828 54.1434C52.2563 53.9054 47.0109 54.0243 41.7757 54.1429ZM31.5374 23.17C31.5176 23.0262 31.4968 22.8746 31.476 22.7113C35.3542 22.5391 39.2038 22.7016 43.0804 22.8653C45.7825 22.9794 48.4979 23.094 51.2453 23.0963V37.3637C51.025 37.5573 50.7949 37.7396 50.5557 37.9098C49.7641 38.4363 48.9692 38.9583 48.1742 39.4805C46.4623 40.6047 44.7495 41.7296 43.0695 42.8987C42.2502 43.4694 41.5606 43.5185 40.7331 43.0353C40.3612 42.8156 39.9839 42.6035 39.6065 42.3914C38.8952 41.9916 38.1834 41.5915 37.5058 41.1401C36.1815 40.2516 35.0701 39.4691 33.8825 38.6329C33.3657 38.2691 32.8344 37.895 32.2648 37.4975C32.138 35.3577 32.0738 33.3691 32.0119 31.4502C31.9297 28.9028 31.8515 26.4784 31.636 23.9865C31.6138 23.7243 31.5778 23.4635 31.5374 23.17ZM29.5601 35.4954C29.5063 35.4269 29.4426 35.3458 29.3409 35.272L27.1508 33.7648L29.305 32.5197C29.3745 33.0502 29.4597 33.6737 29.5403 34.2644L29.5405 34.2655C29.6106 34.7778 29.6771 35.2658 29.7271 35.6462C29.6611 35.624 29.6159 35.5664 29.5601 35.4954ZM54.3375 34.1171L55.4408 34.6331L54.3375 35.2912V34.1171ZM39.8263 32.7271C40.3745 32.7242 40.9237 32.7213 41.4747 32.7213L41.4664 32.7242C42.2068 32.7242 42.9457 32.7545 43.685 32.7848C44.5852 32.8218 45.4863 32.8587 46.3924 32.8411C46.8899 32.864 47.3862 32.7723 47.8472 32.5723C48.1911 32.3882 48.5899 31.9031 48.5954 31.5495C48.6009 31.196 48.2131 30.7343 47.883 30.5006C47.5255 30.3124 47.1293 30.222 46.7306 30.2376C43.2984 30.0358 39.8557 30.2318 36.4634 30.8219L36.3927 30.8338C35.8356 30.9272 35.1366 31.0441 35.1735 31.8652C35.2106 32.69 35.9216 32.7066 36.4852 32.7197L36.5487 32.7213C37.6425 32.7389 38.7325 32.7329 39.8263 32.7271ZM40.9882 28.1H36.819C36.4841 28.1329 36.147 28.0925 35.8236 27.9807C35.5589 27.8516 35.1858 27.5192 35.1725 27.2579C35.1592 26.9965 35.4637 26.561 35.7152 26.3932C36.0242 26.2364 36.3574 26.1626 36.692 26.177L37.5369 26.1209C39.9369 25.9615 42.337 25.8021 44.7392 25.6866C45.41 25.6778 46.0799 25.7447 46.7405 25.8867C47.2461 25.977 47.6669 26.332 47.6987 27.0095C47.7332 27.7871 47.2804 28.2 46.7246 28.3001C45.9322 28.3834 45.1358 28.393 44.3421 28.3291C43.3469 28.311 42.1994 28.2157 41.1903 28.132L40.9988 28.1161C40.9924 28.0806 40.9908 28.0982 40.99 28.1077C40.9895 28.1137 40.9893 28.1164 40.9882 28.1ZM46.6807 37.9296C47.0675 37.9224 47.5571 37.9134 47.7005 37.5616C47.7005 36.5216 46.7924 36.5075 46.1439 36.4975L46.1174 36.4971C43.2984 36.441 40.4766 36.4027 37.6576 36.441C36.5022 36.4563 35.9857 36.8392 36.0773 37.3676C36.2257 38.2199 37.0083 38.2174 37.6515 38.2153C37.6826 38.2153 37.7133 38.2152 37.7437 38.2152C40.6711 38.164 43.5845 38.0569 46.5035 37.9343C46.5587 37.9318 46.6183 37.9308 46.6807 37.9296Z" fill="#03363D"/>
</g>
<defs>
<clipPath id="clip0_39_221">
<rect width="84.84" height="83.77" fill="white"/>
</clipPath>
</defs>
</svg>
