<svg width="1120" height="366" viewBox="0 0 1120 366" fill="none" xmlns="http://www.w3.org/2000/svg">
<path fill-rule="evenodd" clip-rule="evenodd" d="M1119.45 181.51C1117.94 179.59 1115.63 179.526 1113.66 181.84C1110.22 180.801 1107.16 179.744 1103.71 179.649C1102.17 179.606 1101.79 179.142 1102.6 177.255C1103.79 174.919 1104.23 172.076 1102.74 169.64C1102.4 167.262 1101.67 165.33 1099.31 167.632C1097.37 169.002 1095.44 168.95 1093.55 167.47C1090.9 165.032 1088.22 164.47 1085.47 167.248C1085.08 167.724 1084.31 167.703 1083.55 167.196C1082.05 165.271 1080.83 169.033 1079.31 168.051C1077.77 167.524 1077.04 165.588 1075.11 166.022C1071.63 166.867 1068.17 166.773 1064.7 167.163C1062.01 167.573 1059.29 168.44 1056.21 168.353C1051.98 168.239 1048.14 168.131 1044.27 169.453L1043.89 169.441C1042.72 169.897 1043.57 166.093 1041.61 167.463C1040.46 167.92 1039.67 168.837 1038.51 168.804C1037.36 168.773 1036.59 168.752 1035.43 168.718C1035.05 168.709 1034.67 168.244 1034.67 168.244C1035.15 163.493 1033.16 166.777 1032.01 166.745C1029.7 167.134 1026.59 168.476 1024.73 165.117C1023.99 164.124 1023.22 163.651 1022.05 164.558C1019.33 165.908 1016.68 163.921 1013.98 164.336C1013.21 164.315 1012.45 163.805 1012.08 162.86C1012.11 161.434 1012.87 161.451 1013.65 160.986C1014.82 160.563 1016.34 161.548 1017.13 160.142C1024.45 159.859 1031.78 158.633 1038.75 155.973C1038.75 155.973 1039.92 155.549 1039.92 155.068C1041.47 155.108 1043 155.151 1043.03 153.725C1043.06 151.814 1041.93 150.841 1040.41 150.314C1037.35 148.804 1034.63 150.157 1031.95 149.592C1031.96 149.141 1031.58 148.643 1031.2 148.633C1030.88 145.285 1030.49 145.273 1028.55 146.645C1027.41 145.677 1026.64 145.656 1025.49 145.621C1024.73 144.66 1024.35 144.65 1023.94 145.582C1022.77 146.487 1021.62 146.456 1020.88 144.555C1020.5 144.543 1019.49 136.898 1019.89 135.934C1020.68 135.018 1020.7 134.079 1019.95 132.629C1017.67 131.139 1015.39 130.107 1013.04 132.439C1012.29 130.992 1011.13 131.415 1010.37 131.393L1010.36 131.878L1009.6 131.372C1009.34 131.06 1009.25 130.966 1009.11 130.926C1008.95 130.794 1008.84 130.671 1008.84 130.409L1008.07 130.388C1008.07 130.388 1007.9 130.173 1007.67 130.02C1007.65 129.847 1007.57 129.738 1007.33 129.431L1007.32 129.882L1007.06 129.722L1007.33 129.431C1007.36 127.517 1008.52 127.55 1009.67 127.583C1011.96 128.13 1013.51 127.2 1015.09 125.363C1013.59 122.923 1011.28 123.346 1009.35 123.295C1007.82 123.25 1006.29 123.209 1005.17 121.266L1004.77 121.25H1004.78L1005.17 121.266C1005.21 119.386 1006.37 118.931 1006.77 117.518C1008.69 118.506 1010.59 119.533 1012.17 117.178C1012.95 116.714 1013.7 117.217 1014.48 117.242C1015.24 117.75 1016.03 116.798 1016.43 115.866C1017.58 115.901 1018.36 115.436 1019.12 115.457C1021.79 116.957 1024.48 117.03 1026.83 114.73C1028 114.276 1029.14 114.791 1030.29 115.311C1030.67 115.32 1031.06 114.845 1031.06 114.845L1038.75 115.06C1039.13 115.554 1039.51 115.564 1039.9 115.089C1042.23 114.213 1044.51 116.158 1046.09 113.348C1046.88 112.428 1048.04 111.974 1049.19 112.494C1051.09 113.486 1053.02 113.084 1054.93 113.594C1055.71 113.16 1056.48 113.634 1057.26 112.716C1058.79 113.245 1060.7 113.297 1062.28 111.917L1062.49 111.649C1062.64 111.785 1062.84 111.929 1063.05 111.937C1064.21 111.481 1065.35 112.454 1066.13 111.049C1066.13 111.049 1066.84 110.793 1067.34 110.453C1067.39 110.424 1067.43 110.391 1067.48 110.352C1067.56 110.284 1067.64 110.218 1067.7 110.151C1068.47 110.173 1069.23 110.191 1069.64 109.266L1070.4 109.283C1071.17 109.306 1071.55 109.318 1071.94 109.327C1072.06 109.471 1072.22 109.557 1072.39 109.616C1072.53 110.224 1073.13 110.177 1073.48 109.374L1075.01 109.412C1075.08 109.247 1075.14 109.082 1075.18 108.917C1076.67 108.897 1078.06 107.988 1076.63 105.63C1076.26 105.139 1075.86 105.124 1075.85 105.61C1075.45 105.589 1075.06 105.749 1074.74 106.064L1074.69 106.066C1074.52 106.27 1074.39 106.413 1074.29 106.534C1072.76 105.996 1071.28 103.131 1069.69 106.413L1068.92 106.39C1068.75 106.484 1068.64 106.581 1068.53 106.676L1068.54 106.381C1068.14 106.827 1067.76 106.815 1067.76 106.815L1067.75 107.297C1067.36 107.776 1066.97 107.766 1066.96 108.217L1066.19 108.196C1065.43 108.175 1065.02 108.647 1065.02 108.647L1065.02 109.138L1064.64 109.126L1064.25 109.57L1063.84 110.043L1063.46 110.52C1063.46 110.52 1063.21 110.805 1063.07 111.054V110.964L1062.67 110.95L1062.56 111.096C1062.45 110.957 1062.3 110.942 1062.3 110.942L1061.52 110.921C1061.52 110.921 1061.15 110.459 1060.77 109.958C1059.25 108.976 1058.11 108.458 1056.55 109.84C1055 110.284 1053.86 109.282 1052.68 110.678C1051.15 110.633 1049.6 110.591 1048.08 110.095C1046.55 109.08 1045.02 109.041 1043.84 110.432C1040.78 109.405 1037.71 108.836 1034.23 109.715L1034.22 110.17L1034.04 110.165L1034.23 109.715C1030.03 108.173 1025.77 109.483 1021.55 108.876C1020.02 108.832 1018.49 108.793 1016.92 109.691C1016.91 110.173 1016.54 109.679 1016.54 109.679C1014.65 108.201 1012.72 108.147 1010.78 109.519C1010.77 109.845 1010.78 110.175 1010.88 110.496C1010.85 110.496 1010.8 110.496 1010.76 110.492L1010.78 109.519L1009.23 109.479C1006.17 108.453 1002.74 106.93 999.621 109.212C997.715 108.706 996.188 107.691 994.254 108.123C991.207 107.1 988.963 103.7 985.458 105.512C985.111 103.596 984.376 101.66 987.082 101.249C990.17 100.879 993.244 100.477 996.692 101.058C999.389 101.134 1002.09 101.209 1004.79 100.31C1007.5 99.4431 1010.18 100.46 1012.87 100.081C1016.34 100.173 1019.04 99.2783 1021.75 97.9253C1022.92 97.502 1024.09 97.0476 1025.23 98.0242C1027.12 99.0458 1030.2 99.1343 1031.75 98.6868C1036.41 96.4509 1040.99 98.0051 1045.23 97.6304C1047.16 97.6859 1048.69 97.7258 1050.27 95.8611C1052.19 95.9097 1054.11 95.9652 1056.03 96.0172C1056.03 96.0172 1056.43 95.5732 1056.83 95.1014C1058.36 95.1395 1060.27 96.1352 1061.83 94.2982C1062.61 94.3191 1063.39 93.8542 1063.41 92.9158C1063.03 91.9305 1062.65 91.9201 1061.89 91.4466C1061.13 90.4509 1060.37 90.4336 1059.58 91.3824L1059.96 91.3928C1059.85 91.4813 1059.73 91.5454 1059.62 91.6252C1059.6 91.5479 1059.58 91.4657 1059.58 91.3824C1058.42 91.8056 1057.29 90.8308 1056.11 92.2271C1052.65 92.1283 1049.18 92.0363 1045.72 91.9392C1040.37 89.882 1035.37 90.2271 1030.34 91.516C1024.58 91.3564 1019.18 92.1473 1013.81 91.058C1009.97 90.4683 1006.48 91.797 1002.66 90.751C1001.89 90.7302 1001.12 90.7076 1000.72 91.6391L994.565 91.4674C996.6 85.8195 999.384 81.1292 1004.39 80.3278C1007.49 79.4744 1010.57 79.5577 1013.64 79.6427C1015.19 79.1951 1016.72 80.1838 1017.89 78.7875C1017.9 78.5447 1017.79 78.4319 1017.69 78.3781C1017.76 78.3591 1017.83 78.3591 1017.9 78.3348L1017.9 78.7858C1019.81 78.843 1021.75 77.9549 1023.66 78.9471L1024.42 79.4536C1028.68 78.144 1032.9 78.2602 1037.13 78.3781C1038.67 78.418 1039.84 77.5143 1040.63 76.1093C1041.44 74.2151 1042.61 73.3097 1043.79 71.8838L1044.18 71.896C1044.49 71.2646 1044.62 70.8292 1044.63 70.5135C1044.8 70.8812 1044.61 71.3895 1044.18 71.896C1044.94 71.9185 1045.34 71.471 1045.74 70.5117C1045.74 70.5117 1045.38 69.5612 1044.6 69.5404C1043.84 69.0339 1043.07 69.4953 1042.31 68.9922C1042.55 69.3045 1042.79 69.4311 1043.03 69.6046C1042.69 69.5213 1042.4 69.3721 1042.31 68.9922C1042.31 68.9922 1041.92 69.4658 1041.54 68.968C1041.04 68.6453 1040.7 68.7026 1040.43 68.9194C1038.11 68.7858 1035.79 68.5499 1033.45 69.7138L1032.3 69.6843C1031.52 69.6635 1031.14 69.6531 1030.74 70.5829L1030.34 71.0547L1029.97 70.5621C1029.58 70.5517 1028.82 70.5291 1028.04 70.9922L1026.89 70.4771C1026.5 70.4667 1025.74 70.4441 1025.33 71.379C1025.33 71.379 1025.44 71.4224 1025.6 71.4901L1025.33 71.7069L1025.33 71.379L1023.41 71.3218C1022.26 70.8326 1022.28 69.8647 1023.45 68.9541C1025.42 66.6419 1025.44 65.6722 1022.79 63.7156C1021.65 63.1987 1020.5 62.6853 1019.7 64.0868C1018.92 64.5517 1018.55 64.0556 1018.55 64.0556C1018.37 63.9451 1018.19 63.854 1018.01 63.7833C1017.68 63.2716 1017.24 63.2178 1016.88 63.6376L1016.24 63.9931C1016.09 63.8965 1015.93 63.8097 1015.77 63.733C1015.01 61.615 1013.53 61.6046 1012.03 62.935L1010.88 62.9004C1009.36 61.4329 1007.83 61.3913 1006.27 62.7755C1006.27 62.7755 1005.87 63.249 1005.49 63.2386L1005.48 63.6965C1003.96 63.197 1002.39 64.0955 1000.85 64.5361C1000.85 64.5361 1000.87 63.5682 1000.09 63.5474L1000.47 63.5578C999.741 62.1111 998.97 62.0886 998.17 63.4918L997.379 64.4389L996.235 63.9238L995.855 63.9151C995.855 63.9151 995.476 63.9047 995.089 63.4069C994.36 61.9602 993.966 61.9498 993.187 62.8986L992.035 62.8674C991.881 62.8605 991.772 62.8587 991.641 62.857C990.891 62.3505 990.498 62.3401 990.1 63.2681C988.948 63.2386 987.794 63.2074 986.26 62.7061L986.251 63.164C986.206 63.1623 986.161 63.1623 986.119 63.1588C986.196 63.02 986.258 62.8622 986.26 62.7061C985.533 60.7737 984.386 59.8006 982.446 61.1727C980.883 62.073 979.361 61.5474 978.191 62.484C978.191 62.484 978.197 62.6801 978.291 62.942C978.255 62.942 978.218 62.942 978.181 62.9385L978.191 62.484C976.657 62.4407 976.675 61.4711 976.309 60.0348L975.93 60.0244C975.969 59.9116 976.02 59.8284 976.062 59.7191L976.309 60.0348C977.876 59.1363 978.667 57.2473 979.847 55.8544C984.106 54.5465 988.707 55.1571 992.613 52.4113C993.404 51.4624 993.017 50.9941 992.647 50.5032C992.285 49.5474 991.511 49.5284 991.511 49.5284L991.132 49.5179C991.531 48.557 991.937 47.1416 990.415 46.6455C989.26 46.6125 987.706 47.0271 986.572 46.054C987 44.1546 988.887 45.6325 989.692 43.7695C991.251 43.3289 992.789 42.8866 993.606 40.5414C993.606 40.5414 993.996 40.0679 994.384 39.6221C995.166 39.159 994.814 37.721 995.212 36.76C996.011 35.3567 998.298 36.3923 997.57 33.9742C997.217 32.538 995.653 33.4643 994.493 33.8875L991.427 33.806C989.907 32.3351 988.366 32.7791 986.804 33.6776L987.187 34.1685C987.055 34.1685 986.926 34.1651 986.795 34.1616L986.804 33.6776C985.642 34.1321 984.506 33.159 984.098 34.5744C982.945 34.5397 981.785 34.9647 980.651 33.9899C979.112 33.466 977.573 33.9083 976.394 35.3012C975.879 35.284 975.364 35.2702 974.849 35.2596C974.496 34.7878 974.132 34.3576 973.437 34.2934C972.878 33.3741 972.524 33.4122 972.179 34.2448C971.778 34.6889 971.778 34.6889 971.408 34.2206L970.635 34.1997C969.138 32.2483 968.338 33.6516 967.541 35.5423L967.157 35.048C966.005 35.015 964.473 34.9716 963.321 34.9439C963.321 34.9439 962.938 34.4461 962.566 33.9777C962.232 31.5736 962.275 29.2059 959.997 27.7158C959.605 27.702 959.622 26.7635 959.64 25.7956C961.564 25.8477 962.75 23.9969 963.561 22.1096C964.713 22.1391 965.493 21.676 966.282 20.2692C968.961 21.3152 971.312 18.9821 974.008 18.5693C977.442 20.5762 977.831 20.1062 978.3 15.3794C978.3 15.3794 978.309 14.8954 977.929 14.885L977.55 14.8764L977.859 14.6856C977.934 14.7472 978.013 14.7972 978.096 14.8347C978.049 14.8608 978.001 14.8868 977.93 14.8868L978.309 14.8954L978.3 15.3794C979.073 15.4019 979.847 15.4262 980.605 15.4436C981.386 14.9804 981.766 14.9926 982.185 13.5772C982.211 12.1513 981.451 11.6465 980.677 11.624L979.523 11.591C978.755 12.0559 978.755 12.0559 978.371 11.5598L977.992 11.5494C977.992 11.5494 977.82 11.6587 977.634 11.8616C976.994 11.5685 976.386 11.6518 976.047 12.4635L975.668 12.4531C972.962 12.8382 970.302 11.3361 967.96 13.1851C966.808 13.1504 965.647 13.6049 964.85 15.0065L965.228 15.0186C965.154 15.1053 965.082 15.1435 965.011 15.2163L964.848 15.0082C962.561 13.9778 960.257 13.9102 957.557 13.8391C957.561 13.7439 957.543 13.6496 957.506 13.5685C957.473 13.5026 957.429 13.4453 957.387 13.3898H957.385L957.194 12.8868C957.203 12.4028 956.829 11.4505 956.829 11.4505C956.925 11.232 957.042 11.0152 957.162 10.7949C958.14 10.3196 958.832 9.44708 959.197 8.17909C960.362 8.20858 961.524 7.78361 962.313 6.38032C962.703 6.39246 963.073 6.85907 963.465 6.41501C964.235 6.43236 965.008 6.45317 965.038 4.99958C965.054 4.06117 964.279 4.04035 963.509 4.0178C962.356 3.98311 961.204 3.95362 960.051 3.92066C959.321 1.53386 957.78 1.9467 956.245 1.90506L955.855 1.89292C955.855 1.89292 954.72 0.92155 954.711 1.4055C953.895 4.23636 952.378 2.76542 951.227 2.73594C950.864 1.75416 949.721 1.26847 949.312 2.19821C948.514 4.08718 946.969 4.04729 946.169 5.44884C945.789 5.43843 945.417 4.94581 945.417 4.94581C945.026 4.9354 944.656 4.43757 944.656 4.43757C944.673 3.49742 945.463 2.57462 944.317 2.06118C943.557 1.55468 942.764 2.5035 942.366 3.43151C941.214 3.40202 940.071 2.88338 939.271 4.29013C939.271 4.29013 938.119 4.25891 937.72 5.21641C935.804 4.67868 933.871 5.10886 931.927 5.99697C931.416 5.98197 930.905 5.96868 930.394 5.95708L929.621 5.93626L929.241 5.92412C928.089 5.8929 926.954 4.91806 926.145 6.80703C925.383 6.78621 924.228 6.2693 923.822 7.68473C923.822 7.68473 922.67 7.65351 922.281 8.12879C921.506 8.10451 921.129 8.0941 920.346 8.52948C919.581 8.0542 918.427 8.02125 917.639 8.94231L917.258 8.93191L916.869 9.40719C916.478 9.39678 916.469 9.85124 916.469 9.85124L914.937 9.80788L914.636 10.1721C914.067 9.96399 913.72 10.33 913.386 10.7359C912.231 10.7047 911.453 11.14 911.031 12.5537C911.031 12.5537 910.279 12.0767 909.507 12.0559C907.984 11.5286 906.429 11.9727 905.248 13.3621L904.87 13.3517C903.718 13.3222 902.953 12.8174 902.164 13.7385C902.156 14.1444 902.42 14.2137 902.51 14.2242C902.391 14.2242 902.274 14.2207 902.155 14.219L902.164 13.7385C901.393 14.1999 900.631 13.6951 900.224 15.1071C898.297 15.055 896.391 14.0611 894.823 15.931C894.428 15.9171 894.428 15.9171 894.058 15.4262L893.285 15.4037C893.276 15.8859 892.897 15.8772 892.897 15.8772L892.5 16.3195H892.496L892.504 15.8668L891.352 15.8339C891.352 15.8339 891.727 16.2779 892.459 16.3161C891.842 16.2866 891.274 16.2033 890.97 15.8235L890.199 15.8026C890.029 15.7964 889.86 15.8162 889.694 15.8616L889.817 15.7922C889.44 15.7818 889.036 16.2259 889.036 16.2259C887.494 16.6682 886.359 15.6951 885.217 15.1782C882.573 12.2537 880.267 12.1912 877.138 14.9562C877.127 15.4418 877.127 15.4418 877.519 15.4522C877.519 15.4522 877.578 15.5182 877.657 15.5962L877.586 15.6396C877.448 15.5225 877.29 15.4545 877.127 15.4418L877.138 14.9562C876.366 15.421 875.975 15.4089 875.584 15.8547C874.432 15.8235 873.286 15.3343 872.517 15.317C872.134 15.3048 872.134 15.3048 871.764 14.807C871.401 14.3432 870.924 14.079 870.426 14.0659C869.927 14.0527 869.443 14.2916 869.067 14.7359C868.675 15.2094 868.276 15.6552 868.276 15.6552L867.503 15.6344C867.503 15.6344 867.133 15.166 866.361 15.1435L866.752 15.1556C866.581 14.8048 866.324 14.5478 866.026 14.4306C865.118 13.6899 864.147 13.5529 862.939 13.1383L862.743 13.3759L862.187 12.6335L861.033 12.6006L859.881 12.5676L859.234 12.951L859.182 12.9336L859.489 12.5572C856.445 10.5884 853.716 12.8816 851.008 13.2944L849.856 13.2597C848.72 12.2623 847.18 12.7029 846.026 12.67C845.282 11.2233 844.119 11.6743 842.967 11.6465C842.604 10.663 841.834 10.6457 841.06 10.6231C838.21 9.35862 835.34 9.13659 832.454 9.84083C831.844 9.75757 831.187 9.74196 830.685 10.3352C829.902 10.7966 829.524 10.7862 829.139 10.2953C828.015 8.83824 826.853 9.28923 825.7 9.25801C824.169 9.21465 822.621 9.17128 821.477 8.65611C820.332 8.16868 819.188 7.65004 818.018 8.55897C816.068 9.9345 813.762 9.86685 811.457 9.80614C811.086 9.3378 810.323 8.8313 810.323 8.8313C807.243 8.74804 804.157 9.147 801.843 9.53902C801.07 9.51993 800.691 9.50779 799.917 9.48698L799.909 9.97266L799.538 9.47657C799.165 9.00823 798.782 8.51387 798.782 8.51387C794.908 10.3178 791.086 8.7862 787.618 9.147L785.692 9.09496C784.932 9.07588 783.786 8.58499 783.367 9.99695C781.464 9.46269 779.955 7.51127 777.986 9.85124L778.378 9.86512C773.348 11.1487 768.774 9.11057 763.751 9.91542C761.048 10.8122 758.35 10.7359 756.392 13.0498C756.392 13.0498 756.001 13.0394 756.009 12.5537C755.638 12.0889 755.257 12.0767 754.864 12.0663C754.869 11.9654 754.849 11.8652 754.807 11.7818C754.661 11.1296 754.026 11.0741 753.352 11.0533C753.352 11.0533 752.957 11.0446 752.966 10.5867C751.831 9.58585 751.072 9.56503 749.894 10.9614C747.584 10.4375 744.896 10.3647 742.576 11.2424C742.576 11.2424 741.44 10.2675 741.042 11.2025L739.497 11.1574C737.563 11.5876 735.636 11.5355 733.724 11.4818C733.724 11.4818 733.721 11.7263 733.766 11.9674C733.748 11.9553 733.733 11.9501 733.715 11.9397L733.724 11.4818C733.34 10.9839 732.571 11.4505 732.173 11.8981C731.408 11.8738 731.01 12.3491 730.617 12.8226L730.918 13.199C730.873 13.2406 730.852 13.2805 730.821 13.3204C730.721 13.1886 730.614 13.0706 730.617 12.8226L728.695 12.7706C727.56 11.768 726.416 11.2823 725.597 13.6275C725.2 14.585 724.436 14.0784 724.066 13.5858C723.741 10.7237 721.788 12.0941 720.252 11.565L720.243 12.0524C720.185 12.0871 720.141 12.1027 720.088 12.1322L720.252 11.565C719.126 10.108 718.717 11.5251 717.927 12.4722L718.312 12.9406L718.303 13.4262C718.311 12.9406 718.311 12.9406 717.927 12.4722C715.623 12.4115 713.327 11.8634 711.356 14.2033C711.356 14.2033 711.346 14.6613 711.727 15.1556L711.326 15.6292L711.356 14.2033L710.976 14.1929C710.824 14.1005 710.665 14.0336 710.501 13.9935C710.154 13.2354 709.778 13.1921 709.067 13.1695C708.706 12.2172 707.553 12.1895 706.771 12.6214L706.392 12.611C705.627 12.1322 705.239 12.5798 704.838 13.0533C703.286 13.9813 670.268 10.3439 668.687 12.2103L668.307 12.2016C668.307 12.2016 667.842 12.3838 667.401 12.6353C665.593 12.4566 663.494 11.7107 661.36 12.9822L659.056 12.9163C658.692 11.938 658.314 11.9276 657.903 12.8833C657.903 12.8833 657.513 13.3274 657.142 12.866L651.366 12.7029C649.834 12.6596 648.279 13.0776 647.493 14.4809C644.76 16.3195 642.108 14.33 639.803 14.2675C639.04 13.7888 638.277 13.2857 637.879 14.2137L637.485 14.2051C636.717 14.6647 636.717 14.6647 636.313 15.1418C635.554 15.1192 634.781 15.1019 634.007 15.0776C633.943 14.9815 633.861 14.9121 633.769 14.8773C633.678 14.8426 633.581 14.8441 633.49 14.8816C630.228 13.6153 626.936 13.9379 623.645 14.3074C622.19 14.2675 620.407 14.6335 618.598 14.6335C616.711 13.1817 614.807 13.1279 612.476 14.4826L612.096 14.4739C612.096 14.4739 611.929 14.6769 611.81 14.9527C608.417 15.2823 604.7 14.7653 601.294 16.0594L601.687 16.0698C601.621 16.0686 601.556 16.0901 601.497 16.1322C601.435 16.0861 601.365 16.0611 601.294 16.0594L591.69 15.7922C590.527 15.7627 589.002 15.2614 588.205 16.6665C585.125 16.5797 582.44 16.5086 579.36 16.4236C578.99 15.9275 578.617 15.4349 578.227 15.4228C573.977 16.2727 570.167 14.7428 565.928 15.0828C563.265 13.1262 560.196 12.5555 556.721 13.4002C555.558 13.8547 554.026 13.8131 552.873 13.7818C552.803 13.7782 552.734 13.7997 552.673 13.8443C552.619 13.7957 552.556 13.7698 552.491 13.7697L552.873 13.7818C551.366 12.3144 549.811 12.7567 548.281 12.7099C545.581 12.6387 542.504 12.5503 539.819 12.4774L539.437 12.467C538.299 11.7304 537.059 11.3314 535.799 11.2967C534.539 11.262 533.288 11.5924 532.129 12.2658L530.977 12.2346C530.204 12.2103 529.824 12.2016 529.05 12.1808C526.798 9.26668 524.421 12.9943 522.145 11.506C520.244 10.0247 517.949 9.47657 515.617 10.8417L514.464 10.807C514.091 9.85645 513.33 9.83563 512.938 9.82349C511.428 7.8686 509.889 8.79661 508.328 9.69513C506.413 9.64482 504.475 9.59105 502.562 9.53555C501.802 8.08889 500.642 8.54336 499.488 8.51214L499.113 8.95793C496.416 8.88334 493.716 8.80702 491.441 7.317C491.089 6.36818 490.298 6.80183 489.919 7.27884C488.741 7.24588 487.589 7.20945 486.435 7.1817C484.942 5.7125 483.38 6.61275 481.839 6.11146L480.321 6.07156L479.537 6.05075L478.778 6.0282L478.365 6.95967L476.819 6.91631L475.959 7.25109C475.978 7.1261 476.012 7.00605 476.059 6.89549L476.819 6.91631L476.078 5.95361C474.559 4.48614 473.39 5.39507 472.228 5.84953C471.488 4.85561 470.726 4.83653 469.921 5.78362L469.163 5.76107C468.787 4.78276 468.029 4.76021 466.867 5.21294L465.715 5.18345C465.338 4.23116 464.971 4.22075 464.954 5.1609C464.175 4.6544 463.418 4.63185 462.273 4.14616C462.273 4.14616 461.879 4.13402 461.888 3.64833C461.514 2.69951 461.139 3.1453 460.334 4.09239L458.03 4.02821C458.03 4.02821 457.663 4.0178 457.672 3.53385C456.538 2.56074 456.143 2.5486 455.357 3.95709L453.052 3.89118L451.899 3.85648C451.899 3.85648 451.745 3.95883 451.579 4.12535C450.911 3.71251 450.257 3.3309 449.577 3.31009C448.076 2.32831 446.915 2.75328 445.368 2.70992C442.304 2.62319 439.603 2.5486 436.915 2.01955L436.905 2.47748C436.836 2.47401 436.781 2.46881 436.717 2.46881L436.915 2.01955C436.915 2.01955 436.165 1.51131 435.388 1.00828L435.379 1.49223L435.27 1.4905C435.337 1.34455 435.377 1.17933 435.388 1.00828C435.388 1.00828 434.244 0.515655 433.86 1.4506L429.248 1.32051C428.096 1.28755 427.308 1.26847 427.282 2.69431C427.277 2.91633 427.278 3.03776 427.316 3.1453C427.302 3.15918 427.286 3.16612 427.273 3.17999L427.282 2.69431C425.368 2.6388 423.823 2.59717 421.91 2.54513C421.91 2.54513 421.526 2.04904 421.536 1.5911L421.134 2.03863C421.134 2.03863 421.056 2.03169 420.973 1.98659C421.18 1.91562 421.373 1.77916 421.536 1.5911C421.143 1.5807 420.785 1.08807 420.785 1.08807C419.658 -0.370723 418.104 0.0698637 416.951 0.0403756C416.951 0.0403756 416.937 0.222508 416.829 0.356072L416.561 0.0317027L416.465 0.373418L416.193 0.0195605C415.398 0.453209 415.389 0.938896 415.374 1.87905C415.374 1.87905 414.996 2.35433 414.602 2.34392L413.057 2.29882L413.048 2.7845L412.936 2.78277C413.006 2.63735 413.048 2.47202 413.057 2.29882C411.556 1.31877 409.999 1.73161 408.454 1.68998C406.55 1.17827 406.515 3.06377 406.479 4.97009C406.444 6.88335 407.983 5.98136 407.983 5.98136C410.307 5.07937 411.798 7.97094 413.755 7.08283L414.511 7.10538C416.06 7.14874 417.97 7.19905 419.516 7.24415C422.947 8.76365 426.013 8.85212 429.499 7.51995L429.891 7.52689L430.285 7.53903C433.32 9.05159 436.744 11.0603 440.247 8.75671C442.212 7.38638 444.114 7.92411 446.42 7.98482C446.431 7.50087 446.438 7.0464 446.047 7.03426L446.438 7.0464L446.42 7.98482L447.965 8.02818L449.105 9.00129L449.084 9.97266C449.434 10.9215 449.809 11.8738 449.789 12.8452C448.228 13.7437 446.707 13.7003 444.769 13.6483C443.249 13.6049 441.33 12.6092 439.388 13.9848C438.988 14.4306 438.621 14.4184 438.226 14.4098C437.852 13.4557 437.092 13.4332 436.699 13.4262C435.958 12.4618 435.173 12.4375 434.413 12.4202C431.348 12.3334 428.256 12.2485 425.603 11.206C424.841 9.75931 424.082 9.74023 423.299 11.1418L420.598 11.0689C418.696 9.13312 416.773 9.53381 414.853 9.97093C411.378 10.8157 407.894 10.7185 404.434 10.6231L404.067 10.611C404.074 10.1565 403.693 9.6587 403.282 10.5902L402.522 10.5694C402.149 9.61534 401.779 9.6084 400.995 9.58412C401.012 8.64223 400.252 8.62488 399.491 8.60233C399.555 8.77579 399.624 8.89028 399.694 9.00649C398.687 8.59193 398.296 8.56938 397.947 8.55897C397.188 8.53815 396.402 8.51734 395.992 9.44361C393.344 7.94666 390.245 8.34561 387.18 8.26409C386.797 7.76626 386.797 7.76626 386.419 8.24154L386.026 8.23113C384.874 8.19644 383.328 8.15654 382.577 7.65178C381.802 7.14527 381.042 7.12446 380.632 8.08022L380.264 8.07328L378.327 8.01778C377.201 6.56072 376.049 6.52776 374.87 7.92237C374.108 7.90156 374.108 7.90156 373.715 7.88768L373.348 7.88074C372.58 6.88855 371.821 6.86601 371.058 6.84866C370.293 5.88596 369.534 5.85994 368.731 6.78448C367.971 6.76193 367.579 6.74979 367.209 6.74285C365.307 4.80531 362.977 6.1687 361.071 5.63271L360.671 6.10105L360.68 5.62057C359.544 4.64399 358.784 4.62491 357.613 5.53384L357.221 5.52169C356.46 5.50435 356.069 5.49221 355.676 5.4818C354.934 4.5191 354.172 4.50002 353.371 5.41762C352.611 5.40027 351.849 5.37772 351.832 6.31614C350.68 6.28665 349.896 6.2641 348.744 6.22941C348.009 4.78276 346.445 5.71077 345.301 5.19212C343.424 3.23203 341.092 4.59369 339.164 4.08198C337.669 2.58676 336.117 3.03082 334.552 3.95709C334.552 3.95709 333.393 4.38207 333.382 4.86428L332.622 4.84347C332.622 4.84347 331.47 4.81225 331.061 5.74372L330.299 5.72291C328.414 2.81746 326.088 3.72465 323.767 4.60062L322.613 4.5694C322.299 4.75674 322.135 4.86428 322.024 4.96316C320.998 4.53991 320.236 4.50522 319.159 4.47226C318.81 3.52865 318.039 3.50783 317.623 4.40982C314.684 4.22422 311.745 2.90072 308.783 4.18432C308.783 4.18432 309.165 4.68215 309.157 5.13835L308.783 4.18432C307.263 2.71859 305.718 2.67522 304.538 4.07157C304.538 4.07157 303.375 4.52257 303.018 4.02821C301.502 2.55901 299.571 3.44538 297.64 2.93715L297.272 2.92674C295.36 1.41764 293.432 2.33698 291.894 1.80966C291.52 0.855635 291.153 0.846962 290.349 1.7663C289.589 1.74548 288.831 1.7264 288.026 2.67002L287.661 2.66308C287.264 2.64921 286.506 2.62839 286.506 2.62839L286.113 2.61972C284.995 0.676972 283.46 0.149655 281.521 1.52172C280.361 1.97445 278.83 0.961445 278.046 2.39769C277.252 2.83307 276.885 2.82267 276.885 2.82267C276.502 2.62762 276.112 2.46427 275.715 2.33351L276.498 2.35432C274.974 1.34132 273.462 0.815739 271.887 2.22596C270.735 2.19474 269.582 2.16525 268.037 2.12015C267.918 1.96327 267.78 1.83536 267.629 1.74201C267.533 1.17307 267.171 1.12623 266.536 1.10889C265.75 1.08807 264.991 1.06552 264.579 2.02475L262.275 1.95884L262.264 2.41677C260.757 0.463617 258.844 0.409844 257.263 2.27974L257.271 1.82527C256.499 2.25892 255.77 0.810536 254.965 1.75762C254.965 1.75762 254.591 2.20515 254.203 1.73681L253.42 1.71946L253.043 2.16525L252.659 1.69691C252.286 0.718602 251.917 0.708195 251.114 1.65355L250.888 1.92415C249.825 1.02216 248.763 0.227712 247.657 1.55815L246.136 1.51478C246.136 1.51478 245.744 1.50784 245.351 1.49397C245.229 1.34382 245.081 1.23867 244.92 1.18868C244.768 0.571162 244.165 0.621465 243.832 1.4506C243.832 1.4506 242.67 1.87558 242.286 1.40897C240.758 0.395968 239.615 -0.119207 238.043 1.28928C237.944 1.40535 237.865 1.54995 237.813 1.71252C236.01 1.29275 234.499 1.67089 232.654 2.08373C231.911 1.1245 231.127 1.10021 230.348 2.02302L229.956 2.01088C228.804 1.97618 227.658 1.46101 226.871 2.8643L226.471 3.34131L226.089 2.84348C225.738 1.89466 224.954 1.87211 224.566 2.80358L223.414 2.77236C222.631 2.75155 222.613 3.72292 222.224 4.64919L222.595 4.6596C222.595 4.6596 222.485 4.73592 222.357 4.83306L222.225 4.64919L221.833 4.63879L221.815 5.58067C221.692 5.57929 221.569 5.55596 221.45 5.51129L221.833 4.63879C221.833 4.63879 221.073 4.62144 221.082 4.13228C219.946 3.16265 218.784 3.61538 218.784 3.61538C218.289 3.79577 218.079 3.98658 217.991 4.14963L218.001 3.59456L216.849 3.55987C216.849 3.55987 216.618 3.6917 216.475 3.81138C216.476 3.65527 216.48 3.5512 216.48 3.5512C216.087 3.53732 215.696 3.52518 215.326 3.5165L214.544 3.49569C211.084 3.40375 207.609 4.24677 204.506 6.0733C204.506 6.0733 204.106 6.51909 203.706 6.99263L204.096 7.00304C204.096 7.00304 204.307 6.99783 204.51 6.86427C204.496 6.95274 204.489 7.01344 204.489 7.01344C204.291 7.16609 204.144 7.25455 203.987 7.35689L203.706 6.99263L202.553 6.96141C201.043 5.00825 199.854 6.88682 198.325 7.32567C197.933 7.31527 197.531 7.76279 197.905 8.74457C198.289 9.20944 198.666 8.76192 199.451 8.78447L200.193 9.75064C200.569 10.7012 201.338 10.2658 202.113 10.7446C202.113 10.7446 203.255 11.2597 203.615 11.7558C204.007 11.7645 203.999 12.2207 203.999 12.2207L204.392 12.2328C204.743 13.2112 205.893 13.2441 206.668 13.7211L206.678 13.2649C206.71 13.2684 206.745 13.2684 206.777 13.2684C206.711 13.4033 206.673 13.5597 206.668 13.7211C208.565 14.7445 210.48 14.7966 212.442 13.4262C214.346 13.9327 216.274 14.4722 217.833 12.604C218.117 12.9735 218.403 13.1001 218.688 13.1383C218.861 13.964 219.475 13.8495 220.137 12.6648L220.53 12.6769C220.53 12.6769 220.74 12.4393 220.859 12.1218C220.882 12.1635 220.91 12.1843 220.931 12.2328L220.53 12.6769C221.682 12.7116 222.442 12.7324 223.596 12.7636C224.353 14.212 223.935 15.6257 223.908 17.0533L223.506 17.5268C222.912 17.5095 222.551 17.5182 222.408 17.9778H222.344L222.337 18.4635C221.575 18.4427 220.43 17.924 220.021 18.8555C219.253 19.3204 218.858 19.31 218.49 19.2996C216.544 19.7298 214.248 19.1816 213.052 21.5164L213.356 21.9101C213.251 21.9362 213.152 21.9778 213.042 22.0038L213.052 21.5164C211.498 21.9587 210.719 22.8815 209.93 24.2813L208.778 24.2501C208.778 24.2501 207.625 24.2206 207.217 25.1781C205.303 25.1261 203.722 26.9648 201.444 25.4747C201.06 25.0099 200.65 25.9379 200.633 26.8798C200.607 28.3056 199.445 28.7601 199.058 29.6898C197.906 29.6586 197.495 30.6161 197.468 32.0454C197.833 33.4799 198.586 33.9881 199.738 34.0211L200.481 34.9786L200.465 35.9205C200.46 36.0939 200.462 36.2379 200.465 36.3819L200.455 36.4044C200.455 36.4218 200.462 36.4408 200.465 36.4599C200.481 37.0722 200.602 37.4521 201.212 37.8511L200.785 39.7505C200.392 39.74 199.63 39.721 199.614 40.6594C198.451 41.1138 197.299 41.0826 196.548 40.5761C196.548 40.5761 196.325 40.2968 196.042 40.368C195.984 40.3593 195.904 40.3888 195.763 40.5553L195.002 40.5345C195.002 40.5345 194.834 40.4321 194.592 40.3628C194.554 39.6221 194.198 39.6412 193.458 40.4911L193.089 40.4824L192.697 40.4686L192.304 40.4582H192.306C189.667 38.4755 186.559 39.3602 184.263 38.8103C182.357 38.2743 180.43 37.7626 178.899 38.1772C178.254 38.1598 177.892 38.1806 177.554 38.7149C176.832 39.074 176.154 39.0705 175.793 39.0618L175.423 39.0531C175.244 38.9716 175.088 38.9248 174.924 38.8641C174.527 38.0922 173.836 38.0384 173.111 38.0193C171.235 36.0835 169.635 38.8918 167.742 37.8701C167.359 37.4018 167.359 37.4018 166.981 37.8493C164.72 35.4174 161.621 35.8199 158.921 35.7435L158.914 36.198L158.547 36.1893L158.921 35.7435C158.565 35.2474 158.565 35.2474 158.163 35.7227C156.25 35.6672 154.311 35.6152 152.398 35.5631C150.879 34.0957 149.358 34.054 147.789 35.4348L147.396 35.4244L145.482 35.3723L144.33 35.3376C143.545 35.3186 142.391 35.2856 141.634 35.2683L141.239 35.2579C140.881 34.76 140.499 34.2691 139.738 34.2448C139.738 34.2448 139.927 34.4981 140.213 34.7479L140.095 34.7375L139.738 34.2448C139.441 33.884 139.368 33.8181 139.162 34.2275L138.951 34.2206L137.431 34.1789L137.422 34.6646L136.645 34.1616C132.768 35.4799 132.761 35.9621 135.02 39.8198C135.387 39.8302 135.395 39.374 135.395 39.374C135.395 39.374 135.491 39.577 135.609 39.8389L135.02 39.8198L135.011 40.3055L135.002 40.7877L134.215 40.7669C134.215 40.7669 133.814 41.2127 133.448 41.2023L133.806 41.6967L133.768 41.7435C133.732 41.6065 133.649 41.4816 133.448 41.2023C131.51 41.1503 129.186 42.0557 127.274 42.0037L126.88 41.9915C126.889 41.5059 126.898 41.0236 126.54 40.5553C125.449 37.185 125.059 37.1746 122.727 38.538L121.939 38.5172L121.178 38.4981C119.67 36.5432 118.131 37.4712 116.194 37.4157C116.194 37.4157 115.04 37.3862 115.024 38.3263C114.64 39.2578 115.388 39.7609 116.15 39.7834C116.531 40.2795 117.302 39.8181 117.302 39.8181C117.381 39.6273 117.488 39.5007 117.594 39.374C117.649 39.5147 117.683 39.6684 117.695 39.8268L118.088 39.8389L118.079 40.3229C118.071 40.7773 118.437 40.7877 118.821 41.2856C118.811 41.7678 118.802 42.224 119.562 42.2465C119.946 42.7426 120.341 42.7496 121.099 42.7738L121.851 43.2804C121.842 43.7383 122.627 43.7556 123.386 43.7782C124.924 44.3055 126.852 43.4174 128.373 44.8848L128.739 46.3228L129.114 45.8493C129.118 45.6585 129.115 45.4833 129.096 45.3254L129.508 45.8597C129.508 45.8597 129.114 45.8493 128.739 46.3228C129.097 46.7912 129.491 46.8016 129.884 46.812C130.618 48.2899 131.385 47.8233 132.188 46.8727L132.947 46.8952C134.519 45.5145 137.171 47.9811 138.737 45.629C139.863 47.0861 141.438 45.7036 142.572 46.7044C144.85 48.1945 147.897 49.2196 150.602 48.8415C152.542 48.8935 154.437 49.8857 156.359 49.4538C157.896 49.9811 158.637 50.9438 159.395 52.3904C157.833 53.3219 157.054 54.236 155.501 54.6801C154.368 53.6775 153.232 52.7027 151.648 54.576C151.273 55.0184 150.496 54.5448 149.728 54.9767L149.737 54.524C149.363 53.5405 148.986 54.014 148.201 53.9932L146.655 53.9498L145.896 53.929L144.753 53.4121C143.635 51.5041 141.694 52.8744 140.56 51.8718C140.177 51.4069 139.408 51.8406 139.39 52.8119C139.362 54.236 137.809 54.6489 137.782 56.073C137.022 56.0522 136.639 55.5873 136.234 56.0314C135.868 56.0209 135.478 56.0088 134.706 56.4737C133.911 56.942 132.776 55.936 132.01 56.4008C131.225 56.3765 130.464 56.3557 129.714 55.8527C127.792 54.857 125.882 54.8033 123.949 55.6914C121.991 56.6107 119.687 56.5483 117.758 57.4329C116.964 57.896 116.945 58.8379 117.722 59.3462C118.463 60.3054 119.232 59.8405 120.026 59.4069C121.546 59.4502 123.486 59.5005 125.013 60.4841C127.291 61.9741 129.982 61.1085 132.67 61.641C133.43 61.6618 134.609 61.6913 135.37 61.7139C136.101 63.1918 137.666 62.2603 138.416 62.7685C139.953 63.2993 139.926 64.7234 139.9 66.151C139.882 67.0877 139.874 67.5751 139.113 67.5543C136.826 66.5187 134.092 68.3574 131.813 66.8639C130.687 65.4068 129.892 65.8752 129.49 67.7416C127.542 68.1718 125.658 66.6956 123.746 66.6419C122.226 65.1727 120.288 65.1206 118.364 65.556C117.971 65.5456 117.598 65.9897 117.203 65.9758C114.533 64.4754 111.459 64.8761 108.761 64.8049C108.42 63.3652 107.243 63.3323 106.472 63.8023C104.561 63.7486 103.022 63.2195 101.468 63.6618C101.113 63.1657 101.113 63.1657 100.717 63.1501C99.583 62.1822 97.663 62.5812 96.5174 62.1007C95.7417 61.589 94.5974 61.0738 94.5718 62.4997C94.1622 63.4624 94.9532 62.994 95.7148 63.0183L96.0976 63.5127C95.688 64.4407 94.5437 63.9255 94.143 64.3973L93.7846 63.9064C93.384 64.3748 92.9897 64.3661 92.9897 64.3661L93.3904 63.8943C93 63.8821 93.0077 63.4294 92.6505 62.9298C91.8825 61.9723 91.5433 60.5031 90.3542 62.3817C88.8336 60.9125 87.3257 58.9594 84.9846 60.805C84.2141 61.2716 83.0518 61.726 82.2851 62.1579C82.2851 62.1579 82.271 62.177 82.0291 62.4615C81.9796 62.3603 81.9335 62.2561 81.8909 62.1493L82.2851 62.1579C81.8985 61.6913 81.5171 61.1952 80.7542 61.1744C79.999 59.7278 78.8189 61.1241 77.6669 61.0912C76.5405 59.6341 75.3616 61.0253 74.2173 60.5118C73.4749 59.5491 72.3229 59.5162 71.1683 59.4849C70.0073 59.9064 69.6233 59.4416 68.8809 58.4529C67.7469 57.478 66.9635 57.4537 66.9264 59.367C66.5488 59.8145 66.1584 59.8024 66.1648 59.3496C66.1853 58.3783 65.4301 57.9013 64.648 57.8787C63.1248 57.8371 61.9728 57.8006 60.8208 57.7729L59.2746 57.7295C58.5245 57.2248 57.7578 56.2621 56.9706 57.6653L56.5789 57.6549L54.2736 57.5908C53.1562 55.648 51.6035 56.0921 50.4234 57.4832L49.2714 57.4537L49.2675 57.5751C48.4547 56.8449 48.1347 56.4511 48.1347 56.4511L47.7674 56.4442C47.0006 55.478 46.6218 55.9533 46.2211 56.4008C45.0512 57.3375 43.8979 57.3045 42.3722 56.2933C38.9136 56.1961 35.8634 55.1727 32.4151 54.5934C29.736 53.5769 27.0211 54.4459 24.3063 55.3358L23.9376 55.3271L23.9453 54.8432C23.9453 54.8432 23.7751 54.7443 23.5357 54.6732C23.4947 53.9342 23.121 53.9533 22.4016 54.7981L22.0087 54.7876C19.7034 54.7252 16.9949 55.1346 14.7101 54.106C14.3491 53.6393 13.9498 54.0834 13.5491 54.5569L12.7875 54.5361L12.4138 54.975C11.4628 54.7946 10.7946 54.1511 10.0714 55.4017C9.81838 55.3949 9.56536 55.3879 9.31235 55.3809C8.57635 53.9342 7.44227 52.9611 6.26211 54.354C4.69156 55.7365 2.72676 57.112 1.17796 58.4945C0.787559 58.4841 0.0169997 58.9455 0.000359695 59.8874C-0.0188403 60.8622 0.733799 61.334 1.49284 61.3531L2.64484 61.3878C2.73444 61.1883 2.833 61.0357 2.9354 60.9004C2.9994 60.9229 3.04804 60.9455 3.04804 60.9455L3.43204 61.4103L3.82372 61.4207C4.89892 64.3002 4.4778 67.1484 5.18564 70.0174C5.93187 71.948 6.28387 72.9003 7.81859 73.4276C9.72451 73.9688 11.2324 75.8907 13.1472 75.9428C13.1549 75.5195 13.4864 75.5039 13.5312 75.5039L13.1472 75.9428C13.5197 76.9263 14.6832 76.4718 15.4666 76.4926C15.4039 79.83 15.4039 79.83 11.144 80.6522C14.5667 82.6591 18.0343 82.2706 20.721 82.8291C23.7891 82.9124 27.2183 84.4336 29.9536 82.6001L30.1456 82.385C30.2135 82.4631 30.2698 82.5134 30.3453 82.6105L29.9536 82.6001C31.4717 84.0676 33.3661 85.0928 33.704 87.9583C32.9437 87.9358 32.5431 88.3781 32.1424 88.8499L32.4816 89.2939C32.3703 89.3148 32.264 89.3425 32.1335 89.3373L32.1424 88.8499C31.9887 89.0337 31.8709 89.2661 31.7994 89.5264L31.3642 89.7727C30.5808 89.7501 29.8205 89.7276 29.4506 89.7206L28.2922 88.7458L27.9223 88.7354C27.1568 87.7727 26.3965 87.7536 25.6183 88.6712C24.0733 88.6279 22.5283 88.5845 21.0064 88.5446C21.0064 88.5446 20.6237 88.0468 20.241 87.5819L19.8723 87.5715C19.8723 87.5715 19.0787 88.0051 19.0698 88.4891C16.3331 90.3278 13.3072 88.3295 10.609 88.2567L8.69539 88.2046C6.78179 88.1491 4.84644 88.1005 2.5386 88.0346C0.983399 88.4787 0.983399 88.4787 1.33412 90.8533C2.449 92.7978 4.38052 91.9114 5.937 91.4691C7.09667 91.0129 7.88131 91.0337 8.21411 92.9591C8.57891 94.3954 9.72451 94.9123 10.8765 94.9435L23.9479 95.3043C23.9509 95.1228 23.9398 94.9414 23.9146 94.7631L24.3395 95.3147L25.4762 96.2896L26.2365 96.3104C26.9789 97.2679 27.7623 97.2887 28.5405 96.3711C29.2138 95.9773 29.8679 95.6252 30.5155 95.5333C30.8509 95.9392 30.8919 95.9704 31.6291 96.4596L32.0003 96.4682C32.2359 96.5725 32.4892 96.5786 32.7274 96.4856C36.2858 96.5844 39.5562 96.6798 43.1581 96.7787C43.6598 97.4304 44.1629 98.0803 44.6672 98.7284L44.6762 98.2445L44.9885 98.4543C44.7837 99.2557 45.4672 99.7293 46.1622 100.196L46.1456 101.139C43.0685 101.538 39.9709 101.908 36.895 102.307L36.5034 102.296C36.4319 102.104 36.3291 101.935 36.2026 101.804L36.5123 101.809C35.7699 100.852 35.377 100.841 34.9917 101.769C34.5898 102.244 34.1981 102.232 33.8384 101.738C32.2947 101.696 31.1415 101.662 29.5978 101.618C28.4714 100.161 27.3194 100.133 26.1392 101.526C26.1392 101.526 25.3763 101.504 24.5853 101.967C23.8339 101.462 23.0723 101.44 22.2698 102.39L21.9011 102.378C21.5005 102.824 21.1075 102.812 20.7299 103.285L20.7184 103.875L20.721 103.774C20.721 103.774 19.5895 103.263 19.1747 104.173C17.7642 104.087 16.4125 103.812 15.6842 105.514C14.5219 105.969 13.7271 106.433 12.5866 105.915C11.8506 104.468 10.6986 104.435 9.91011 105.84L9.12803 105.821C7.97347 105.79 6.82147 105.754 5.29827 105.712C4.5162 105.695 4.10404 106.621 3.72004 107.585C3.70212 108.522 4.45348 109.034 5.23684 109.056C5.91651 109.072 6.57571 110.198 7.26051 110.808C7.33527 110.896 7.41835 110.97 7.50755 111.028L7.48963 111.969C7.08003 112.895 6.67043 113.858 6.65123 114.798C6.60643 117.165 7.36419 118.614 8.88611 118.652C10.8228 118.704 12.7363 118.759 14.6717 118.813L15.0327 119.311C16.168 120.281 17.7399 118.895 18.0957 120.82C18.4285 122.742 16.5059 123.145 16.0963 124.104C14.9443 124.074 13.7911 124.041 13.7552 125.951L12.9936 125.93C11.8672 124.473 10.6973 125.382 9.55427 124.864C8.78627 123.903 8.02595 123.88 7.26435 123.863C6.86371 124.333 6.47331 124.322 6.46563 124.775C6.09572 124.77 5.70403 124.756 5.70403 124.756C5.30339 125.231 4.93348 125.221 4.93348 125.221C4.53284 125.698 4.14116 125.684 3.37956 125.663C2.61156 126.099 2.59236 127.068 3.345 127.545L3.35268 127.193C4.61732 127.563 5.36739 127.599 6.41187 127.628C7.19523 127.653 8.34723 127.682 9.50051 127.713C10.234 129.162 11.7789 129.205 12.9232 129.724C12.5213 130.196 12.1296 130.185 12.1296 130.185C9.78979 132.005 7.84803 133.373 8.93987 136.747C9.31363 137.696 8.50339 139.101 8.47651 140.527C7.30403 141.469 7.28739 142.405 8.42147 143.406C9.18819 144.373 8.01827 145.28 7.60739 146.241C6.43875 147.15 7.18883 147.654 8.34083 147.687C9.10883 148.648 10.2519 149.165 10.9853 150.614L11.386 150.14C11.386 150.14 11.3757 150.622 10.9853 150.614C12.1117 152.071 10.5578 152.483 10.1712 153.443L10.5412 153.453C10.5386 153.555 10.5271 153.661 10.5117 153.772C10.4861 153.634 10.4119 153.448 10.1712 153.443C7.39363 157.646 7.39363 157.646 11.1901 160.607C12.6851 162.074 14.2199 162.598 16.5354 162.178C18.481 161.748 21.137 162.789 22.6909 162.346C25.7667 161.947 28.8477 162.518 31.5536 162.105C32.68 163.564 34.2096 163.151 35.3629 163.184C39.9965 163.313 44.607 163.441 49.2163 163.564L49.1984 164.508C49.1728 165.934 46.8688 165.869 47.5933 167.8C47.967 168.754 49.48 169.28 50.6333 169.311C54.1226 168.922 57.9318 169.97 61.4186 168.64C62.5782 168.215 63.7225 168.702 64.8579 169.703C64.8579 169.703 65.6233 170.667 66.0265 170.192C69.1088 169.335 72.5763 168.948 75.5984 171.427C76.3728 171.906 77.5248 171.935 78.3043 171.018C79.4819 169.621 80.6275 170.138 81.7795 170.169C84.8451 171.684 87.1504 171.746 89.0704 171.314C92.5468 170.466 95.6112 171.979 98.6665 172.522L98.6409 173.94C96.703 175.316 97.0422 176.785 98.9622 177.777C102 179.288 105.049 180.313 108.549 179.47L108.908 179.963C109.667 181.413 110.837 180.475 111.587 180.979L111.954 182.416L111.552 182.891C110.793 182.87 110.007 182.846 109.248 182.827C109.248 182.827 108.854 182.816 108.864 182.332C108.122 181.37 106.962 181.795 105.808 181.762L104.647 182.214C106.477 186.546 102.297 184.518 102.27 185.944L101.483 185.925C100.348 184.95 99.2041 184.433 98.408 186.324C98.408 186.324 98.2672 186.48 98.0828 186.61C98.0041 186.586 97.9222 186.59 97.8447 186.62C97.7673 186.651 97.6968 186.708 97.64 186.785C94.9404 186.714 92.278 184.73 89.5465 186.563L89.1792 186.553C89.0078 186.444 88.8312 186.351 88.6505 186.275C88.3165 185.6 87.9516 185.547 87.2579 185.529C85.7654 184.06 84.2089 184.504 82.655 184.948C81.4953 185.371 81.0844 186.329 82.2454 187.302C82.2365 187.786 82.5948 188.254 82.9853 188.265C83.7187 189.711 84.4803 191.189 85.6681 189.307C86.8112 189.798 88.3229 190.324 89.4569 191.325C89.439 192.266 89.055 193.198 88.6428 194.157C88.2512 194.143 88.2409 194.601 88.2409 194.601L88.0541 194.839L87.8749 194.591C86.7139 195.045 85.928 195.021 87.0454 196.967C87.0454 196.967 87.4281 197.432 87.8224 197.441C88.9475 198.899 90.1084 198.478 91.2694 198.022C92.8003 197.581 93.9856 197.154 95.1388 197.189C95.7161 197.553 96.0822 197.637 96.3945 197.233C97.4851 197.292 98.2172 197.748 98.9443 198.233C103.145 200.717 107.738 201.815 111.929 203.359C113.849 204.35 116.155 204.417 117.353 202.082C118.524 201.144 119.264 202.135 120.418 202.166C120.409 202.624 121.186 203.128 121.945 203.151C122.32 204.102 123.081 204.121 123.848 203.689C125.413 202.762 126.949 203.29 128.103 203.321C131.129 205.316 134.212 205.857 137.288 205.484C139.602 205.064 141.9 205.612 143.811 205.666C146.115 207.154 148.438 206.249 150.343 206.788C153.371 208.783 156.846 207.907 159.939 207.994C159.939 207.994 160.115 207.786 160.237 207.505C160.27 207.522 160.305 207.531 160.339 207.55L159.939 207.994C160.323 208.488 160.304 209.43 161.456 209.461C163.387 208.575 164.932 208.617 166.874 207.241L166.489 206.747L166.537 206.691C166.583 206.873 166.679 206.997 166.874 207.241C168.426 206.801 170.322 207.822 171.866 207.866C173.402 208.363 174.913 208.893 176.487 207.508L176.124 207.04C176.249 207.033 176.368 207.021 176.496 207.023L176.487 207.508L178.03 207.553C179.516 209.505 182.206 210.034 183.758 209.619C187.995 208.769 191.802 211.267 196.43 210.428C196.412 211.397 196.405 211.885 196.394 212.337C195.226 213.274 195.205 214.218 196.341 215.189C196.341 215.189 196.723 215.687 197.083 216.178C197.057 217.604 197.031 219.031 195.125 218.493C193.983 217.978 192.81 218.917 191.658 218.882C191.676 217.914 191.277 218.388 190.898 218.861L190.505 218.851C189.745 218.832 188.961 218.809 188.21 218.303C187.084 216.846 185.521 217.744 184.35 218.681L184.346 218.927C184.224 218.854 184.106 218.795 183.982 218.672L184.35 218.681C183.233 216.74 182.446 218.143 182.446 218.143L181.284 218.599C181.271 218.599 181.248 218.594 181.248 218.594C181.388 218.452 181.526 218.292 181.662 218.122C178.622 216.611 175.908 217.48 173.233 217.404C172.484 215.501 170.92 216.398 169.399 216.358C168.641 214.91 167.874 215.376 167.095 216.294C166.704 216.282 166.308 216.271 165.942 216.265C165.568 215.311 164.807 215.288 164.398 216.219C162.474 216.653 160.575 214.688 158.634 216.062L158.627 216.421C158.486 216.321 158.356 216.195 158.242 216.046L158.634 216.062C157.9 214.613 156.713 215.066 155.56 215.036C153.282 213.545 150.609 213.472 147.885 214.82L143.642 214.705C143.294 213.725 142.506 213.704 142.139 213.694L141.747 213.683C139.835 213.63 137.895 213.579 135.589 213.51C134.848 212.552 133.695 212.52 132.543 212.485C128.29 212.853 124.1 211.314 120.247 211.206C119.506 210.218 119.113 210.206 118.702 211.163C118.702 211.163 118.326 211.611 117.941 211.142C117.726 211.261 117.505 211.355 117.279 211.423C115.062 209.847 112.453 211.899 109.873 210.917C108.355 209.451 106.443 209.397 104.914 208.386C102.643 206.414 101.877 206.877 101.805 210.695C101.804 210.852 101.819 211.009 101.849 211.161C101.832 211.157 101.815 211.155 101.797 211.153C101.403 211.142 101.403 211.142 101.02 210.676L100.258 210.655C99.5177 209.666 99.1248 209.654 98.7139 210.61C98.6601 213.463 99.4294 214.426 101.34 214.478C100.841 220.167 101.609 221.135 106.221 221.264C109.677 221.357 112.716 222.868 116.173 222.962C116.549 223.944 116.942 223.956 117.701 223.975C118.444 224.938 119.222 225.444 120.008 224.039L119.641 224.029C119.763 224.006 119.884 224.011 120.008 223.997V224.039C121.527 225.506 123.08 225.066 124.601 225.106C125.753 225.14 126.521 226.101 125.699 227.99L125.333 227.978C124.546 227.961 123.788 227.94 123.788 227.94L123.77 228.908C123.721 229.017 123.673 229.076 123.624 229.16C123.513 228.977 123.381 228.705 123.385 228.414C121.491 227.418 119.177 227.812 116.871 227.746L116.476 227.739L113.018 227.638C111.894 226.185 110.739 226.153 109.568 227.088C109.169 227.532 109.169 227.532 108.8 227.526C108.8 227.526 108.397 227.682 107.985 227.808C107.744 227.739 107.452 227.725 107.25 227.968C106.078 228.875 104.933 228.389 103.387 228.343L102.226 228.768L102.217 229.255C101.833 228.757 101.467 228.748 101.467 228.748C100.672 229.21 99.528 228.696 99.1363 230.11C99.1081 231.536 100.26 231.569 101.02 231.59C103.324 231.652 105.264 231.706 107.561 232.252C108.322 232.275 110.242 231.845 109.427 234.674C108.658 235.137 108.259 235.614 107.847 236.544C106.695 236.512 105.559 235.538 104.406 235.506C102.86 235.463 101.692 236.374 102.449 237.82C104.29 241.695 101.931 244.485 100.725 247.302L100.324 247.747C100.176 247.928 100.055 248.077 99.9401 248.23C99.2233 248.24 98.3977 248.4 98.3747 249.605C98.7523 250.556 99.5011 251.062 100.261 251.083L101.806 251.126C102.54 252.573 104.067 253.558 105.643 252.172C106.408 251.739 107.177 252.701 108.32 253.218L108.275 255.586C105.961 256.008 103.282 254.962 101.298 257.303C100.538 257.281 100.128 258.212 100.11 259.185C100.083 260.615 100.86 261.086 102.014 261.119C102.773 261.142 103.532 261.163 104.32 261.18C106.998 262.23 109.651 263.239 112.35 263.315C113.476 264.772 115.04 263.877 116.185 264.363C116.543 264.859 116.926 265.357 117.695 264.889C118.07 265.843 118.446 266.825 119.205 266.845C119.606 266.37 120.008 265.893 120.017 265.44L120.026 264.955L120.392 264.965L120.634 264.419L120.796 264.491L120.392 264.965C120.392 264.965 120.777 265.463 121.17 265.473C122.297 266.93 123.833 266.001 124.978 266.519L124.986 266.034C125.354 267.47 126.513 267.048 127.273 267.071L127.664 267.081L128.059 267.09C129.203 267.576 130.355 267.607 131.51 267.64C132.643 268.646 134.197 268.2 135.34 268.717C135.698 269.184 136.095 269.194 136.842 269.697C136.842 269.697 137.237 269.711 137.226 270.195L137.61 270.66C137.61 270.66 137.977 270.67 138.362 271.168C138.362 271.168 138.746 271.661 139.122 271.189C139.926 270.269 139.952 268.847 140.73 267.893C140.73 267.893 141.893 267.471 142.641 267.947C143.409 268.941 144.179 268.474 144.963 268.497C145.307 269.933 146.466 269.477 147.251 269.503L147.234 270.471L147.976 271.433C148.351 272.386 148.717 272.396 149.129 271.463C149.531 270.989 149.897 271 150.299 270.552C150.309 270.072 150.702 270.084 150.702 270.084L150.71 269.596C151.862 269.628 153.006 270.145 153.795 268.739C156.127 267.378 158.028 269.343 160.332 269.409C160.332 269.409 161.476 269.893 161.846 269.903C168.036 268.197 174.139 271.211 180.304 270.897C181.445 271.414 182.965 272.883 184.154 271.001C184.154 271.001 184.022 270.823 183.913 270.585C183.995 270.557 184.085 270.549 184.163 270.521L184.154 271.001L184.531 270.533L184.524 271.012C186.049 271.997 187.612 271.099 189.124 271.628C189.889 272.589 190.652 272.609 191.413 272.632C191.396 273.572 193.691 274.12 191.007 274.533C190.617 274.523 190.216 274.967 189.845 274.955C189.838 275.442 189.445 275.432 189.054 275.421L189.043 275.902C189.043 275.902 188.292 275.399 187.533 275.378L185.987 275.333C185.997 274.85 185.603 274.842 185.595 275.324C185.217 275.798 185.217 275.798 184.817 276.275C182.154 274.287 178.67 275.615 175.611 275.05C179.052 276.113 181.313 278.545 183.975 280.531L183.966 280.982C183.954 281.624 184.117 281.832 184.336 281.912C184.359 282.203 184.433 282.425 184.7 282.432L184.709 281.98C184.709 281.98 184.79 282.183 184.908 282.439L184.7 282.432C184.682 283.404 184.675 283.856 185.056 284.354C185.801 285.314 186.56 285.336 187.345 285.36C188.097 285.863 188.479 286.363 188.479 286.363C189.947 289.258 191.483 289.752 193.422 288.377C194.207 288.401 195.359 288.434 196.513 288.464C196.513 288.464 196.895 288.961 196.886 289.447C196.869 290.385 196.458 291.348 196.076 290.852C192.627 290.268 190.249 294.03 187.203 292.974C186.419 292.949 186.038 293.426 185.639 293.903L185.247 293.893L184.095 293.858C183.735 293.366 183.34 293.355 182.951 293.345C181.824 291.884 179.893 292.769 178.349 292.725C177.596 292.222 176.444 292.188 176.416 293.647C176.383 295.527 177.133 296.032 178.285 296.065C179.831 296.108 181.353 296.151 183.29 296.202C183.68 296.212 184.442 296.233 185.201 296.257L185.603 295.78L185.595 296.266C186.747 296.297 187.891 296.819 188.671 295.867C190.642 294.042 190.206 296.394 190.949 297.357C190.177 297.82 189.778 298.294 189.39 299.223L189.751 299.723C189.48 299.931 189.237 300.051 189.005 300.127C189.133 299.992 189.269 299.875 189.381 299.714L189.39 299.223C187.847 299.183 186.302 299.14 185.15 299.107C183.998 299.072 183.236 299.055 182.465 299.52C180.494 301.346 180.494 301.346 182.385 303.797C181.966 305.213 181.938 306.64 181.914 308.064C181.914 308.064 182.113 308.077 182.224 308.261L182.166 308.392L181.914 308.064C181.522 308.054 181.513 308.54 181.113 308.984L180.743 308.972C180.743 308.972 179.95 309.438 179.571 309.912C179.863 309.919 179.932 309.922 180.14 309.929L179.571 309.912L179.546 311.338C179.488 311.528 179.46 311.685 179.418 311.858C177.639 312.758 178.376 313.697 179.482 314.644C179.482 314.644 179.852 314.654 179.474 315.129C180.574 318.014 179.763 319.414 177.449 319.841C176.287 320.26 175.918 320.25 175.89 321.679C175.863 323.136 176.607 324.096 177.369 324.116C178.513 324.602 180.048 325.131 180.835 323.724C183.172 323.336 185.024 326.696 187.347 325.822L187.747 325.343L188.117 325.353L187.347 325.822C187.739 325.828 188.099 326.325 188.099 326.325C188.864 327.287 189.198 329.209 190.387 327.331C192.691 327.393 194.997 327.459 196.924 327.995L196.933 327.509C196.996 327.544 197.041 327.535 197.1 327.56C197.011 327.667 196.928 327.78 196.924 327.995C201.118 329.537 204.968 329.643 208.845 328.325L210.389 328.368L210.399 327.882C214.6 328.94 219.201 329.551 223.452 329.18L224.604 329.214C224.818 329.36 224.995 329.456 225.15 329.53C225.317 329.785 225.47 329.815 225.584 329.7C225.681 329.721 225.75 329.731 225.75 329.731C227.296 328.349 228.432 329.318 229.586 329.351C232.273 329.913 235.024 327.136 237.269 330.536L238.815 330.58C241.923 328.266 245.363 329.332 248.831 328.942C249.214 329.44 249.599 329.903 249.965 329.913C250.742 330.422 251.099 330.919 250.715 331.846C250.304 332.776 249.912 332.765 249.545 332.753C247.989 333.201 246.462 332.215 244.53 333.103C245.257 335.036 246.007 335.511 247.16 335.54C249.5 335.154 251.029 334.711 253.334 334.774C253.317 335.71 254.103 335.736 254.471 335.745C254.471 335.745 254.852 336.241 255.239 336.739C253.656 338.574 254.024 340.011 255.907 341.488C257.793 342.997 260.124 343.065 261.608 344.987C261.608 344.987 261.737 344.831 261.852 344.614C262.861 344.994 263.575 344.971 263.932 344.111C265.494 343.213 267.04 343.254 268.559 343.296L271.652 343.383C271.652 343.383 271.784 343.239 271.964 343.204C272.092 343.305 272.246 343.4 272.41 343.405C272.402 343.86 272.796 343.87 272.804 343.416C273.563 343.433 274.35 343.455 275.102 343.932C276.636 344.461 278.139 345.442 279.665 346.456C279.665 346.456 280.051 346.921 280.041 347.41C278.862 348.803 276.923 348.751 277.263 351.613C279.557 352.158 280.757 349.795 282.331 348.411C283.098 347.978 283.105 347.494 283.125 346.553C283.041 346.55 282.979 346.564 282.91 346.569C283.122 346.075 283.135 345.972 283.141 345.58L283.132 346.068L283.125 346.553C284.671 346.595 285.376 349.468 286.958 347.601C286.958 347.601 287.69 349.048 288.067 349.997C288.735 354.782 291.023 355.787 294.911 354.012C295.035 354.016 295.111 354.016 295.168 354.019H295.302C295.382 354.023 295.469 354.026 295.602 354.028L296.064 354.043L296.457 354.052C296.573 353.91 296.658 353.728 296.702 353.525C297.179 353.424 297.133 352.971 296.493 352.144C296.511 351.202 296.896 350.238 298.057 349.82L298.843 349.84C298.852 349.353 299.219 349.363 299.219 349.363L299.228 348.878L300.772 348.919C300.772 348.919 301.55 349.431 301.54 349.912L301.898 350.378C301.898 350.378 301.514 351.341 302.282 350.878L302.675 350.888L303.041 350.897C303.041 350.897 303.82 351.405 304.178 351.868C304.877 354.609 306.305 354.352 308.136 353.525C308.213 353.577 308.293 353.62 308.37 353.67C308.298 354.54 308.004 355.315 308.357 355.325C310.22 358.229 312.899 359.271 315.578 360.286C317.484 360.796 319.053 359.441 320.6 358.028L320.627 356.602C322.174 356.645 323.328 356.677 323.754 354.807C323.772 353.833 324.156 352.905 324.927 353.87C326.069 354.387 326.821 354.893 326.496 352.482C326.523 351.056 327.676 351.089 327.676 351.089C329.206 350.677 329.964 352.125 331.108 352.611C331.45 354.047 331.814 355.483 333.377 354.588C334.147 354.123 334.547 353.681 335.291 354.64C335.291 354.64 336.014 356.572 336.827 355.167C336.827 355.167 337.22 353.754 336.87 352.772C336.899 351.343 335.37 350.361 336.55 348.97C336.942 348.982 337.311 348.992 337.702 349.001C337.702 349.001 338.478 349.509 338.469 349.96C338.469 349.853 338.5 349.75 338.556 349.674C338.661 349.773 338.761 349.872 338.838 349.971L338.469 349.96C338.469 349.96 339.221 350.468 339.212 350.952C340.338 352.413 341.902 351.483 343.044 352.003C343.044 352.003 343.405 352.496 343.788 352.963C344.44 358.685 344.44 358.685 348.283 359.278C349.435 359.311 350.588 359.344 351.74 359.372C353.714 357.514 355.583 359.967 357.505 359.533C358.657 359.566 359.767 361.962 360.219 358.67C360.219 358.67 360.981 358.687 361.365 359.15C364.062 359.228 367.127 359.311 369.818 359.873C370.577 359.894 371.36 359.918 371.748 358.985C372.531 359.008 373.292 359.03 374.052 359.049L374.837 359.07C375.187 360.023 375.962 360.527 376.35 359.568C376.75 359.124 376.759 358.64 376.008 358.132C376.786 357.214 376.821 355.299 377.6 354.382L377.992 354.392L378.383 354.402C380.698 353.979 382.62 353.579 383.818 351.214L384.602 351.233C385.336 352.68 386.49 352.713 386.854 354.147C387.215 354.65 387.196 355.587 386.816 356.064L385.665 356.03C384.899 355.07 383.757 354.553 382.977 355.467C382.19 356.874 380.626 357.806 380.993 359.242C381.717 361.169 382.906 359.292 383.667 359.315C387.516 359.419 391.375 359.041 395.235 358.661C397.884 360.16 400.972 360.246 403.638 360.81C405.722 362.154 407.82 362.272 410.195 361.296C410.446 361.4 410.701 361.32 410.945 361.009L411.73 361.03C411.73 361.03 412.108 360.555 412.507 360.111C413.268 360.134 413.659 360.142 414.423 360.163L417.512 360.25C417.862 361.199 418.646 361.221 419.058 360.291C420.21 360.323 421.365 360.357 422.883 360.395C422.875 360.848 423.267 360.86 423.276 360.408C423.276 360.408 424.036 360.428 424.419 360.893C425.179 360.916 425.562 361.41 425.967 360.935C426.351 360.009 425.993 359.509 425.615 358.562C426.386 358.094 427.182 357.663 427.958 356.709C428.342 357.209 428.334 357.693 428.334 357.693L428.7 357.703L429.093 357.714C429.294 357.887 429.498 357.991 429.702 358.064C430.435 359.079 431.487 358.723 432.531 358.753C432.524 359.237 432.906 359.698 432.906 359.698C433.292 360.199 433.649 360.694 433.649 360.694C434.775 362.151 435.927 362.184 436.74 360.781C437.93 358.902 439.082 358.931 440.219 359.903C441.343 361.363 442.861 361.403 444.043 360.009L444.828 360.031C446.739 360.082 448.278 360.614 450.181 361.148C451.724 361.192 453.612 362.675 454.46 359.36C454.826 359.365 455.218 359.377 455.218 359.377L456.767 359.421C457.147 359.918 457.139 360.368 457.139 360.368C457.402 360.6 457.638 360.767 457.865 360.895C458.505 361.735 459.15 361.629 459.813 360.444L460.596 360.467C460.59 360.952 460.947 361.448 461.34 361.459C461.532 361.944 461.829 362.18 462.175 362.179C462.463 362.199 462.853 361.983 463.252 361.509C466.729 360.635 469.819 360.718 472.865 361.778C473.635 362.741 474.395 362.761 475.171 361.839C476.324 361.872 477.468 362.359 478.281 360.954C481.338 361.526 484.453 360.186 487.503 361.209C487.894 361.218 488.271 360.777 488.672 360.3C489.432 360.323 490.208 360.827 490.584 360.354C495.679 355.728 500.993 360.154 505.989 359.355C507.151 358.899 508.678 359.913 509.814 360.886C510.582 361.844 511.725 362.366 512.904 360.97C516.715 362.503 520.564 362.121 524.413 362.225C526.327 362.281 527.493 362.312 527.153 359.45C526.817 357.074 528.742 357.129 529.896 357.159C530.258 358.109 530.628 358.605 530.61 359.544C529.843 360.012 529.07 359.99 529.051 360.926C529.033 361.901 529.806 361.925 529.806 361.925C531.329 362.416 532.095 362.928 532.892 361.525C532.892 361.525 533.273 361.533 533.654 361.546C533.654 361.546 534.806 361.577 535.215 360.645C537.129 360.699 539.444 360.278 540.544 363.16L540.925 363.655C545.16 363.773 548.978 364.822 552.863 363.013L562.477 363.277L562.858 363.289L563.237 363.297C564.011 363.322 565.165 363.353 565.935 363.374C566.679 364.366 567.069 364.378 567.469 363.414L568.632 362.994C570.591 361.138 572.896 361.199 575.176 362.69C575.922 364.137 577.075 364.168 577.872 362.765C579.053 361.37 579.097 359.004 579.892 357.115C581.439 357.155 581.403 359.065 582.546 359.552L582.555 359.098C582.555 359.098 582.583 359.133 582.629 359.181C582.581 359.295 582.552 359.422 582.546 359.552C585.563 362.977 589.783 363.577 593.613 364.139C595.151 364.669 597.073 364.232 599.014 363.348C601.337 362.47 604.051 361.573 606.713 363.072C607.475 363.584 608.248 363.601 609.01 363.622C612.479 363.719 615.545 363.804 618.64 362.945C619.666 362.978 620.692 363.007 621.718 363.034C621.709 363.487 622.081 363.984 622.081 363.984L623.626 364.028C626.707 364.113 629.769 364.196 632.832 365.219C635.52 365.781 636.687 364.872 635.981 361.514C635.609 361.018 635.225 360.553 635.635 359.589C636.404 359.155 636.796 359.169 636.796 359.169C639.056 361.598 640.993 361.164 642.533 360.753C644.837 360.817 645.229 360.343 643.74 357.934C643.387 356.498 642.632 355.502 643.803 354.598C644.983 353.206 645.727 354.651 646.089 355.599C647.199 358.028 647.99 357.077 649.168 355.686L649.94 355.707C651.463 356.238 651.839 357.185 649.885 358.559C647.945 359.478 648.307 360.428 650.222 360.966C650.606 361.429 650.986 361.441 650.986 361.441C652.814 366.744 654.416 362.961 655.978 361.58C658.318 359.764 661.008 360.291 663.312 360.357C667.164 360.461 702.914 361.78 706.762 361.887C707.142 361.898 707.543 361.419 707.533 361.908C710.946 364.366 713.325 360.642 716.02 360.229C716.791 360.25 717.195 359.806 717.213 358.833C718.025 356.002 719.959 355.601 721.078 357.514C722.578 359.953 724.463 361.431 727.17 361.023C728.322 361.053 729.075 361.561 730.222 362.534C731.366 363.048 732.511 363.535 733.673 363.115C735.996 362.205 738.297 362.265 740.179 364.72C740.921 365.683 742.085 365.225 743.248 365.259C743.437 365.766 743.732 366.005 744.029 365.998C744.275 366.022 744.576 365.797 744.782 365.299C744.782 365.299 745.171 364.855 745.573 364.382C745.573 364.382 745.962 363.906 746.341 363.917C746.745 363.476 746.752 362.989 747.131 363.001L747.141 362.513C746.941 362.34 746.736 362.212 746.53 362.071C746.74 362.059 746.936 362.088 747.149 362.059C747.158 361.573 747.549 361.585 747.941 361.108L747.95 360.654C747.995 360.498 748.059 360.359 748.127 360.222C750.36 361.093 752.633 359.858 754.849 361.788C755.611 362.291 756.018 360.878 756.018 360.878C755.888 360.817 755.758 360.734 755.629 360.664C755.757 360.59 755.885 360.517 756.028 360.392L757.573 360.434C757.573 360.434 757.942 360.93 758.313 361.395L758.925 361.801C759.037 361.984 759.177 362.133 759.335 362.238C759.493 362.342 759.665 362.401 759.841 362.409C759.713 362.406 759.582 362.401 759.448 362.399C760.203 363.36 760.595 363.37 760.996 362.441C761.383 361.967 761.775 361.977 761.784 361.488L762.166 361.5C762.406 361.362 762.601 361.252 762.808 361.136C762.721 361.265 762.631 361.362 762.546 361.509C763.707 361.089 764.478 361.11 765.641 360.657L766.021 360.668L766.701 360.9C768.162 362.017 769.956 361.289 771.389 361.757C773.286 363.235 775.21 363.285 777.545 361.927C781.397 361.095 785.258 360.711 789.099 361.304C792.156 361.873 795.243 361.476 797.94 361.551L798.331 361.072C798.379 361.138 798.428 361.176 798.475 361.228L797.94 361.551C800.967 364.487 804.432 364.094 806.407 360.84C807.57 360.389 809.115 360.432 810.639 360.957C811.023 361.422 811.393 361.922 812.167 361.941C812.912 363.388 814.436 363.918 815.969 363.957C816.363 363.969 817.131 363.506 817.139 363.02C819.064 363.068 821.001 362.67 822.56 361.289C825.202 364.215 825.202 364.215 826.823 359.493L827.598 359.514L831.434 359.622C831.812 360.571 832.571 360.593 833.353 360.156C834.515 359.705 835.288 359.726 836.44 359.757L836.594 359.573C836.623 359.637 836.656 359.721 836.687 359.775C836.604 359.769 836.535 359.761 836.44 359.757C836.811 360.255 837.202 360.264 837.202 360.264L837.193 360.718C837.268 360.55 837.287 360.441 837.31 360.324C837.365 360.359 837.414 360.382 837.465 360.411L837.193 360.718C837.193 360.718 837.945 361.23 837.935 361.71C838.311 362.664 839.084 362.687 839.48 361.754L843.32 361.861L844.866 361.903L845.245 361.913C845.633 361.441 846.026 361.452 846.036 360.961C846.425 360.52 846.804 360.531 847.207 360.056C849.104 361.533 851.428 360.657 853.725 361.176C854.498 361.197 855.25 361.705 855.667 360.291C857.6 359.402 859.878 360.893 861.827 359.518C864.535 359.108 867.214 359.667 869.911 359.743C870.68 359.277 870.689 358.794 869.939 358.284L869.99 355.433C870.009 354.494 870.018 354.007 870.787 353.573C871.94 353.606 872.695 354.569 873.441 356.016C873.802 356.966 874.567 357.471 874.964 356.543C876.152 354.664 877.332 353.268 878.832 355.676C879.195 356.661 879.974 356.196 880.366 355.719C880.375 355.265 880.775 354.793 881.156 354.801C882.308 354.834 883.091 354.366 883.859 353.934C884.632 353.957 885.022 353.48 885.422 353.008C885.811 352.564 886.192 352.571 886.192 352.571L886.201 352.09C886.602 351.611 886.602 351.611 886.988 351.169C888.141 351.202 889.295 351.232 890.84 351.273C890.84 351.273 891.005 351.28 891.228 351.337C891.228 352.215 891.602 352.236 892.357 352.257C892.357 352.257 892.741 352.756 892.731 353.207C893.328 354.007 893.696 354.135 894.023 353.674C895.051 353.285 895.415 353.282 895.415 353.282L896.175 352.862C896.057 352.999 895.932 353.143 895.797 353.292C895.992 353.076 896.092 352.966 896.188 352.855C896.191 352.853 896.194 352.851 896.197 352.848C897.359 352.397 898.119 352.418 898.891 352.441C899.262 352.932 899.262 352.932 899.648 353.396L901.954 353.462C902.314 354.446 902.708 354.456 903.106 353.494C903.493 353.049 903.888 353.06 903.895 352.576C906.203 352.64 907.76 351.256 910.057 351.804C910.828 351.828 911.602 351.849 912 350.885L912.773 350.907L913.554 349.99L914.339 349.07C914.855 349.085 915.37 349.099 915.886 349.112C916.249 350.064 917.022 350.087 917.419 349.155C917.798 349.166 918.211 348.205 918.228 347.265L918.004 347.258C918.228 346.604 918.25 346.144 918.264 345.351C920.197 344.921 922.13 344.033 924.416 345.036C925.944 346.052 928.266 345.143 930.2 344.744C932.517 344.319 934.057 343.908 936.362 343.971C939.059 344.047 941.792 341.723 944.878 341.322C944.14 339.419 942.996 338.902 941.862 337.932C941.872 337.447 941.491 337.436 941.12 336.94L940.737 336.474C940.737 336.474 940.755 335.502 940.373 335.494L939.998 334.54C940.025 333.117 940.426 332.638 941.199 332.659C941.329 332.516 941.434 332.334 941.505 332.129C941.766 331.997 941.979 331.742 941.979 331.742L948.133 331.915L948.922 330.994C950.101 329.599 948.577 328.586 948.994 327.169C949.376 327.18 950.146 327.201 950.164 326.264L951.319 326.295C951.527 326.167 951.735 326.115 951.938 326.083C951.853 326.146 951.773 326.221 951.699 326.306C952.471 326.326 952.851 326.337 953.25 325.376C951.362 323.898 949.038 324.807 946.741 324.257L945.971 324.234C944.984 324.619 944.27 324.361 943.362 324.817C943.192 324.88 943.028 324.971 942.874 325.088L942.103 325.067C942.094 325.553 941.712 325.542 941.706 326.03L940.55 325.997C937.853 325.926 935.575 324.432 932.499 324.805C932.125 323.851 931.746 323.839 930.954 324.758L931.325 325.256C931.293 325.273 931.261 325.28 931.226 325.299C931.163 325.096 931.07 324.913 930.954 324.758L929.03 324.706L929.02 325.192C928.956 325.164 928.906 325.152 928.846 325.124C928.947 324.994 929.025 324.855 929.03 324.706C928.288 323.747 926.744 323.702 925.961 324.167C925.582 324.156 925.582 324.156 925.209 323.66C924.826 323.162 924.455 322.699 923.683 322.68C922.566 320.734 924.119 320.293 924.879 320.314C926.434 319.901 928.35 320.406 929.884 320.453L929.893 319.999C929.893 319.999 930.263 320.463 930.656 320.472C930.359 320.115 930.072 320.025 929.956 319.782C930.186 320.052 930.419 320.188 930.656 320.472C933.74 320.106 937.173 321.624 940.675 319.324C941.847 318.411 943.745 319.894 945.28 319.934L945.679 319.461L946.069 319.018C946.84 319.038 947.993 319.07 949.145 319.102L949.155 318.616C949.155 318.616 949.536 318.626 949.923 318.149C949.923 318.149 949.571 316.713 949.198 316.25C948.074 314.791 945.749 315.667 945.402 313.261C946.185 312.829 946.195 312.342 945.428 311.867C944.686 310.389 943.523 310.843 942.369 310.809C942.398 309.385 943.169 309.407 943.952 308.94C945.885 308.542 945.519 307.102 944.005 306.092C945.573 304.254 947.471 305.733 949.404 305.298L949.414 304.814L949.423 304.359L949.031 304.349L950.183 304.38L951.335 304.411C952.11 304.432 953.254 304.918 953.28 303.492C953.678 302.562 952.925 302.056 952.162 301.582C948.723 300.516 944.864 300.892 941.033 300.299C941.058 298.876 940.316 297.428 940.72 296.014C940.729 295.529 941.122 295.537 941.122 295.537C941.726 294.544 942.493 293.756 943.362 293.237C943.749 293.097 944.163 292.949 944.633 292.783C944.985 292.62 945.337 292.486 945.687 292.346C946.51 292.17 947.33 292.078 948.11 291.938C951.595 290.606 955.065 290.705 958.533 290.314C961.217 290.385 964.305 290.02 966.654 287.685C968.235 285.846 970.885 287.803 972.466 285.966C974.027 284.582 975.54 285.562 977.076 286.091C978.97 287.083 980.133 286.628 981.326 285.237C982.086 285.255 982.478 285.267 982.874 284.339L983.258 284.349C984.41 284.379 985.566 284.901 985.602 282.986C985.619 282.016 984.462 281.529 983.692 281.962C983.293 282.438 982.531 282.415 982.141 282.405C979.834 282.344 977.538 281.796 975.205 283.185C974.045 283.608 972.919 282.15 971.765 282.118C971.374 282.108 970.612 282.087 970.203 283.046L970.593 283.06C970.49 283.14 970.385 283.177 970.279 283.248L970.203 283.046C968.289 282.996 965.971 282.932 963.666 282.868L963.653 283.485L963.655 283.322L963.666 282.868L962.903 282.845L962.914 282.356L962.922 281.876C962.941 280.934 962.959 279.994 962.976 279.022L962.223 278.061L960.687 278.014C959.916 277.997 959.143 277.976 958.745 278.904C957.973 278.883 957.212 278.379 956.458 277.902C956.458 277.902 956.076 277.406 955.703 276.911C955.703 276.911 955.331 276.446 954.95 275.948L954.176 275.926L953.798 275.915C953.769 275.902 953.747 275.891 953.719 275.881C953.555 274.868 952.887 274.396 951.906 273.952C950.428 273.91 951.465 273.064 951.886 272.578C952.637 272.293 953.382 271.982 954.122 271.647C954.424 271.655 954.726 271.661 955.031 271.667C955.774 273.118 956.558 272.656 957.336 271.735C957.735 271.26 957.735 271.26 958.124 270.816C958.524 269.857 959.296 269.876 960.448 269.909C960.448 269.909 960.631 269.694 960.752 269.409C961.085 269.371 961.42 269.347 961.762 269.343C964.51 270.318 967.297 269.687 970.06 270.176C970.06 270.176 970.411 269.761 970.45 269.302C970.667 269.288 970.874 269.277 971.089 269.262L979.302 269.487C981.227 269.539 983.523 270.089 984.348 267.263C984.748 266.301 985.519 266.318 986.293 266.344C990.886 267.442 995.128 267.073 999.736 267.199C1002.03 267.749 1004.31 269.239 1007.04 267.886C1009.33 268.406 1010.89 267.019 1012.09 265.142C1012.1 264.882 1012.09 264.778 1012.02 264.727L1012.1 264.687L1012.09 265.142C1012.87 264.223 1012.89 263.282 1012.91 262.311C1013.69 261.876 1014.08 261.402 1014.45 262.354C1016.68 266.729 1020.18 264.422 1022.86 264.982C1023.62 265.461 1023.64 264.521 1023.64 264.521C1024.48 260.748 1026.04 259.364 1027.92 261.784C1031.68 266.169 1035.2 263.411 1039.07 262.093C1039.86 261.173 1040.63 261.194 1041.78 261.225L1041.73 264.077C1041.33 264.524 1040.94 264.996 1040.92 265.94C1040.92 265.94 1040.9 267.397 1041.68 266.929C1042.44 266.949 1042.45 266.465 1042.46 265.978C1042.86 265.536 1043.25 265.062 1043.64 264.589C1045.26 260.353 1048.71 260.932 1051.42 260.519C1054.87 260.62 1057.94 260.701 1060.32 257.458L1060.33 256.972C1060.38 257.015 1060.42 257.057 1060.46 257.099C1060.42 257.138 1060.38 257.191 1060.36 257.254C1060.33 257.316 1060.32 257.387 1060.32 257.458C1060.3 258.4 1060.29 259.34 1059.88 260.299C1059.47 261.716 1059.83 262.665 1060.97 263.638C1061.73 264.145 1061.72 264.63 1062.07 266.066C1062.04 267.976 1063.97 267.544 1063.99 266.575C1064.44 263.735 1067.89 263.832 1067.57 260.028C1067.21 259.074 1068.36 259.106 1068.36 259.106C1072.59 259.68 1076.07 258.351 1079.48 260.84C1080.63 261.328 1081.42 260.406 1082.57 260.441C1082.57 260.441 1082.96 259.966 1083.36 259.52L1084.14 258.573L1083.76 258.563C1083.8 258.453 1083.87 258.393 1083.93 258.308L1084.14 258.573C1084.9 259.078 1085.66 260.04 1086.44 259.605C1087.61 258.667 1089.9 259.701 1089.93 257.789C1090.36 255.432 1088.05 255.371 1086.53 254.84C1085.78 253.395 1084.24 253.354 1083.49 252.845C1082.34 252.334 1080.8 252.287 1080.45 250.396L1080.47 249.425C1081.24 249.449 1082 249.472 1082.77 249.491C1082.77 249.491 1082.94 249.588 1083.17 249.657C1083.21 250.431 1083.58 250.412 1084.31 249.532C1084.32 249.074 1084.71 249.085 1085.1 248.613C1085.11 248.127 1085.49 248.139 1085.49 248.139C1086.69 246.287 1087.87 244.896 1089.78 244.944C1090.55 244.969 1091.34 244.504 1091.35 243.565C1091.37 242.594 1090.6 242.573 1090.22 242.564C1089.07 242.533 1087.54 241.548 1086.35 243.425L1085.58 243.404C1085.54 243.292 1085.48 243.195 1085.41 243.121C1085 242.457 1084.35 242.398 1083.68 242.382C1082.52 242.833 1081.36 243.286 1080.58 243.723C1079.8 243.702 1079.42 244.174 1079.04 244.164C1078.89 243.808 1078.75 243.682 1078.58 243.619C1078.45 243.211 1078.09 243.199 1077.51 243.18C1077.52 242.695 1077.15 242.2 1076.75 242.192C1076.02 240.743 1074.86 241.198 1074.08 241.177C1073.72 240.223 1073.35 239.243 1073.37 238.304C1074.17 236.898 1075.31 237.414 1076.08 237.437C1076.45 237.904 1076.82 238.398 1076.82 238.398C1077.21 238.892 1077.59 238.901 1077.58 239.361C1079.12 239.404 1079.9 238.483 1081.45 238.526C1081.45 238.204 1081.45 237.895 1081.34 237.579C1081.38 237.581 1081.42 237.581 1081.47 237.584L1081.45 238.526L1083.75 238.587L1085.28 238.634L1085.67 238.644C1086.44 238.665 1086.83 238.672 1087.23 237.746C1088.38 237.777 1089.17 237.312 1088.04 235.853C1086.91 234.396 1084.97 235.283 1083.84 233.826C1083.61 234.103 1083.52 234.221 1083.47 234.363C1083.46 234.337 1083.45 234.327 1083.44 234.303L1083.06 234.292C1083.06 234.292 1082.94 234.122 1082.84 233.897L1083.44 234.303L1083.84 233.826C1083.45 233.815 1083.08 233.323 1083.08 233.323L1082.7 233.312L1083.09 232.866C1083.1 231.895 1082.34 231.42 1081.59 230.911L1081.58 231.397C1080.84 229.95 1079.68 229.916 1078.52 230.339C1074.65 231.203 1070.82 230.613 1067.36 231.002L1066.96 230.991C1065.43 230.951 1063.9 229.94 1062.35 231.321C1061.96 231.796 1061.96 231.796 1061.56 231.786L1060.81 231.279C1060.43 230.811 1060.06 230.315 1059.26 231.238C1058.5 230.759 1056.6 230.221 1057.4 228.332C1058.19 226.927 1059 225.066 1060.92 225.578C1062.81 226.599 1064.37 225.671 1065.54 224.762C1066.73 223.368 1068.66 222.938 1069.81 222.967C1074.04 223.083 1077.91 221.765 1082.14 221.881C1084.43 222.429 1086.74 222.495 1089.07 221.132C1089.86 220.212 1090.63 220.691 1091.77 221.206C1092.92 221.723 1093.7 221.26 1094.48 219.853C1094.51 218.428 1094.92 217.47 1096.08 217.045C1096.48 216.088 1096.49 215.63 1096.51 214.662C1096.14 214.193 1095.37 213.689 1094.6 213.666C1087.67 214.415 1080.77 213.285 1073.79 215.461C1065.76 213.356 1057.23 216.918 1049.21 213.838C1048.06 213.808 1047.3 213.3 1046.53 212.825C1044.64 210.861 1043.13 209.876 1040.82 209.814C1039.28 210.23 1038.92 208.79 1038.94 207.366C1042.05 205.567 1045.5 206.121 1048.57 206.69C1052.02 207.269 1055.12 206.383 1058.2 206.469C1062.81 206.598 1067.45 204.842 1072.44 205.921C1075.11 206.48 1078.6 205.605 1081.67 205.69C1082.44 205.711 1083.23 204.792 1083.23 204.792C1084.41 203.397 1085.17 203.42 1085.93 203.925C1089.02 204.008 1092.46 204.565 1095.94 203.716C1097.88 202.797 1100.15 204.775 1102.47 204.383C1103.62 204.415 1105.16 204.455 1105.97 202.566C1107.53 201.184 1109.45 201.689 1111.02 199.855C1114.48 199.947 1114.48 199.947 1115.68 197.128C1114.15 197.089 1112.59 197.501 1111.06 197.458C1111.11 197.59 1111.14 197.715 1111.17 197.843C1110.25 197.446 1109.88 197.383 1109.54 196.958C1109.16 196.462 1108.78 196.452 1107.99 196.915C1107.23 197.351 1106.07 197.321 1105.3 197.3C1099.54 196.199 1093.37 197.453 1087.62 196.811C1082.24 196.206 1077.18 199.377 1071.83 197.342L1070.67 197.312C1065.65 199.057 1060.27 197.968 1054.89 198.306C1051.88 198.665 1048.87 198.608 1045.85 199.429C1042.49 198.294 1039.89 194.603 1036.04 197.781C1035.26 198.703 1033.35 198.168 1031.81 198.124C1031.08 196.22 1029.91 197.128 1028.75 197.097L1028.36 197.089C1027.24 195.632 1026.09 195.597 1025.3 196.062C1023.37 196.95 1021.83 196.905 1019.9 196.854C1016.06 196.75 1016.06 196.75 1013.33 199.037C1012.95 198.57 1012.58 198.077 1011.81 198.056L1011.8 198.54C1011.8 198.61 1011.83 198.658 1011.83 198.721C1011.76 198.658 1011.68 198.589 1011.61 198.53C1011.79 198.518 1011.8 198.435 1011.81 198.056C1011.44 197.56 1011.06 196.61 1010.31 196.102L1009.92 195.637C1009.56 194.655 1008.79 194.636 1008.41 194.625C1010 191.815 1011.92 191.867 1014.23 191.932C1015.78 191.521 1017.66 192.997 1019.25 191.127C1023.49 190.761 1027.34 189.926 1031.18 190.516C1031.91 192.419 1033.05 192.938 1034.22 192.483C1036.95 190.674 1040.38 192.197 1042.01 187.959C1042.78 187.012 1043.94 187.045 1044.71 187.066C1052.78 187.772 1060.48 187.045 1068.19 186.771C1075.88 186.502 1083.56 187.198 1090.9 185.488C1095.93 184.199 1100.11 186.714 1104.73 186.355C1105.89 185.904 1107.81 186.442 1108.23 184.055C1111.33 183.198 1114 184.698 1117.08 184.294C1117.85 184.317 1118.61 184.827 1119.41 183.422C1120.18 182.955 1120.2 182.022 1119.45 181.51Z" fill="#F8EEDA"/>
</svg>
