<svg width="27" height="26" viewBox="0 0 27 26" fill="none" xmlns="http://www.w3.org/2000/svg">
<g id="SVG" clip-path="url(#clip0_39_191)">
<path id="Vector" d="M13.795 2.51037C17.2377 2.51037 17.6455 2.52547 18.9993 2.58587C20.2577 2.64123 20.9371 2.85263 21.3901 3.02879C21.9891 3.26032 22.422 3.54218 22.8699 3.99014C23.3229 4.44312 23.5998 4.87095 23.8312 5.4699C24.0074 5.92289 24.2188 6.6074 24.2742 7.86067C24.3346 9.21963 24.3497 9.62732 24.3497 13.065C24.3497 16.5077 24.3346 16.9154 24.2742 18.2693C24.2188 19.5276 24.0074 20.2071 23.8312 20.6601C23.5998 21.259 23.3178 21.6919 22.8699 22.1399C22.4169 22.5929 21.9891 22.8697 21.3901 23.1012C20.9371 23.2774 20.2526 23.4887 18.9993 23.5442C17.6404 23.6045 17.2328 23.6197 13.795 23.6197C10.3523 23.6197 9.94463 23.6045 8.59071 23.5442C7.33241 23.4887 6.65292 23.2774 6.19993 23.1012C5.60098 22.8697 5.16813 22.5878 4.72017 22.1399C4.26718 21.6869 3.99035 21.259 3.75883 20.6601C3.58267 20.2071 3.37127 19.5226 3.3159 18.2693C3.25551 16.9104 3.24041 16.5027 3.24041 13.065C3.24041 9.62228 3.25551 9.21459 3.3159 7.86067C3.37127 6.60237 3.58267 5.92289 3.75883 5.4699C3.99035 4.87095 4.27222 4.43809 4.72017 3.99014C5.17316 3.53715 5.60098 3.26032 6.19993 3.02879C6.65292 2.85263 7.33744 2.64123 8.59071 2.58587C9.94463 2.52547 10.3523 2.51037 13.795 2.51037ZM13.795 0.190063C10.297 0.190063 9.85907 0.205163 8.485 0.265562C7.11598 0.32596 6.17477 0.547421 5.35939 0.864513C4.50878 1.19671 3.78903 1.6346 3.07431 2.35434C2.35457 3.06906 1.91668 3.78881 1.58448 4.63439C1.26739 5.4548 1.04593 6.39096 0.985532 7.76C0.925134 9.1391 0.910034 9.57699 0.910034 13.0751C0.910034 16.5731 0.925134 17.011 0.985532 18.3851C1.04593 19.7542 1.26739 20.6953 1.58448 21.5107C1.91668 22.3613 2.35457 23.0811 3.07431 23.7958C3.78903 24.5105 4.50878 24.9534 5.35436 25.2806C6.17477 25.5977 7.11095 25.8191 8.47997 25.8795C9.85404 25.9399 10.2919 25.955 13.79 25.955C17.2881 25.955 17.726 25.9399 19.1 25.8795C20.4691 25.8191 21.4103 25.5977 22.2256 25.2806C23.0712 24.9534 23.7909 24.5105 24.5057 23.7958C25.2204 23.0811 25.6634 22.3613 25.9904 21.5158C26.3076 20.6953 26.529 19.7591 26.5895 18.3902C26.6499 17.0161 26.665 16.5782 26.665 13.0801C26.665 9.58202 26.6499 9.14414 26.5895 7.77007C26.529 6.40103 26.3076 5.45983 25.9904 4.64445C25.6734 3.78881 25.2355 3.06906 24.5157 2.35434C23.8011 1.63963 23.0813 1.19671 22.2358 0.869546C21.4153 0.552454 20.4791 0.330993 19.1101 0.270595C17.731 0.205163 17.2931 0.190063 13.795 0.190063Z" fill="white"/>
<path id="Vector_2" d="M13.796 6.45642C10.1419 6.45642 7.17731 9.42097 7.17731 13.0751C7.17731 16.7292 10.1419 19.6938 13.796 19.6938C17.4501 19.6938 20.4146 16.7292 20.4146 13.0751C20.4146 9.42097 17.4501 6.45642 13.796 6.45642ZM13.796 17.3684C11.4253 17.3684 9.50264 15.4457 9.50264 13.0751C9.50264 10.7044 11.4253 8.78176 13.796 8.78176C16.1666 8.78176 18.0893 10.7044 18.0893 13.0751C18.0893 15.4457 16.1666 17.3684 13.796 17.3684Z" fill="white"/>
<path id="Vector_3" d="M22.2201 6.19447C22.2201 7.04997 21.5256 7.7394 20.6752 7.7394C19.8197 7.7394 19.1302 7.04494 19.1302 6.19447C19.1302 5.33898 19.8247 4.64954 20.6752 4.64954C21.5256 4.64954 22.2201 5.344 22.2201 6.19447Z" fill="white"/>
</g>
<defs>
<clipPath id="clip0_39_191">
<rect width="25.77" height="25.77" fill="white" transform="translate(0.910034 0.190063)"/>
</clipPath>
</defs>
</svg>
