<svg width="27" height="26" viewBox="0 0 27 26" fill="none" xmlns="http://www.w3.org/2000/svg">
<g id="SVG">
<path id="Vector" d="M24.4922 6.28706C23.8592 7.20753 23.0684 8.02734 22.1624 8.6885C22.1769 8.88983 22.1769 9.09116 22.1769 9.29249C22.1769 15.433 17.5029 22.5085 8.96096 22.5085C6.3292 22.5085 3.88427 21.7466 1.82831 20.4235C2.20197 20.467 2.56195 20.4807 2.95011 20.4807C5.12123 20.4807 7.12082 19.7471 8.71695 18.4964C6.67468 18.4529 4.96339 17.1161 4.3739 15.2752C4.6614 15.3186 4.94889 15.3468 5.25089 15.3468C5.66804 15.3468 6.08519 15.2896 6.47335 15.189C4.34491 14.7573 2.74878 12.8882 2.74878 10.6301V10.5729C3.36726 10.9184 4.0864 11.1334 4.84823 11.1624C3.59677 10.3281 2.77777 8.90432 2.77777 7.2937C2.77777 6.43121 3.00809 5.63959 3.41075 4.94943C5.69703 7.76803 9.1341 9.60897 12.9883 9.8103C12.9167 9.46482 12.8732 9.10565 12.8732 8.74648C12.8732 6.18639 14.9436 4.10144 17.5182 4.10144C18.8558 4.10144 20.0638 4.66194 20.9118 5.56791C21.9619 5.36659 22.9686 4.97843 23.86 4.44611C23.5146 5.52443 22.7817 6.4304 21.8178 7.0062C22.7527 6.90554 23.6587 6.64703 24.4922 6.28706Z" fill="white"/>
</g>
</svg>
